/* XPM */
static char *_11587effbcf47db90f8a89223051914DRoI7DsYYJ5iTxFh[] = {
/* columns rows colors chars-per-pixel */
"64 64 42 1 ",
"  c None",
". c black",
"X c #202020",
"o c #2C2C2C",
"O c gray22",
"+ c #404000",
"@ c #585400",
"# c #706C00",
"$ c #004040",
"% c #005858",
"& c #007070",
"* c #007474",
"= c #007878",
"- c #007C7C",
"; c #484848",
": c gray33",
"> c #646464",
", c gray44",
"< c #7C7C7C",
"1 c #848400",
"2 c #9C9C00",
"3 c #B4AC00",
"4 c #CCC400",
"5 c #E4D800",
"6 c #FCF400",
"7 c #008484",
"8 c #008C8C",
"9 c #009898",
"0 c #00A4A4",
"q c #20B0B0",
"w c #20B4B4",
"e c #48C0C0",
"r c #74C8C8",
"t c gray55",
"y c #989898",
"u c gray66",
"i c #B4B4B4",
"p c #9CDCDC",
"a c #B8E8E8",
"s c #C0C0C0",
"d c #D0D0D0",
"f c #D8F4F4",
/* pixels */
"                                        OOOOOOOOOOOOOOOOOOOOOOOO",
"                                        -=======================",
"                                        q998*&q88888*&q98888*&q8",
"                                        qqqq-$&qqqqq-$&qqqqq-$&q",
"                                        qqqq=-8qqqqq=-8qqqqq=-8q",
"                                        qqqq7%%%%%%%%%%%%%%%%%%%",
"                                        qqqqq-=&&&&&&&&&&&&&&&&&",
"                                        97aqpq888888888888888888",
"                                        -&7qae00000000000000000q",
"                                        =-8qar000000000000000qqq",
"                                        00qqar0000000000000qqqqq",
"                                        qqqqar00000000000qqqqqww",
"                                        qqqqar00000000qqqqqqwwww",
"                                        qqqqar000000qqqqqqwwwwwe",
"                                        qqqqar0000qqqqqqwwwwwwew",
"                                        97aqar00qqqqqqqwwwwwwewe",
"                                        -&7qarqqqqqqqwwwwwewewew",
"                                        =-8qarqqqqqwwwwwwewewewe",
"                                        00qqarqqqwwwwwwwewewewew",
"                                        qqqqarqwwwwwwwwewewewewe",
"                                        qqqqarwwwwwwwwewewewewew",
"                                        qqqqarwwwwwewewewewewewe",
"                                        qqqqarwwwwewewewewewewew",
"                                        97aqarwwwewewewewewewewe",
"                                        -&7qarwwewewewewewewewew",
"                                        =-8qarwewewewewewewewewe",
"                                        00qqarewewewewewewewewew",
"                                        qqqqarweweweweudddddddss",
"                                        qqwwareweweweq<>,,<<tyus",
"                                        qwwwarwe356eq-o>Ou,<:dyi",
"                                        wwwware=@16w0-o>>>,,<<ti",
"                                        97awar7*+15r8-o>>>>,,<<i",
"                                        -&7waq78+15e8-o>>>>>,,<u",
"                                        =-8ea97p+15e8-o:;1446,,u",
"                                        00err97r+14e8-o;o#..4>,u",
"                                        errpw97r+14e8-oOo#..4>>u",
"                                        rrppq97r+14e8-ooo@oo4>>u",
"                                        rppaq97e+13e8-ooo@@#1>>u",
"                                        paaaq97e+13e8-ooooooo>>y",
"                                        rwafq97e+12e8-oooooo;>>y",
"                                        q-waq978*+#w8-oOO;;:>>>y",
"                                        qqraw97==7ww8-oOX,:>ot>t",
"                                        rrapw9777www8-ooO:::>>>t",
"                                        fappw978wwwq8-ooooooooo>",
"                                        apprw99wwwwq8----------9",
"                                        pprrw9wwwwqq888888888800",
"                                        preeeqwwwqqqqqqq0q000009",
"                                        97aeawwwqqqqqqq0q0000099",
"                                        -&7eaewqqqqqqq0q00000999",
"                                        =-8earqqqqqqq0q0q0009099",
"                                        00eearqqqqqq0q0q00090998",
"                                        eeewarqqqqq0q0q000909999",
"                                        eewwarqqqq0q0q0009099998",
"                                        wwwwarqqq0q0q0q090999989",
"                                        wwwwarqq0q0q0q0009999898",
"                                        97awarqqq0q0q00099998988",
"                                        -&7warqq0q0q000999989888",
"                                        =-8qarrrrrrrrrrrrrrrrrre",
"                                        00qqaaaaaaaaaaaaaaaaaaap",
"                                        qqqqqqqqqqqqq00009999999",
"                                        qqqq97aqqqqq97a099999&w9",
"                                        qqqq-&7qqqqq-&799999-$&8",
"                                        qqqq=-8qqqqq=-899999=-88",
"                                        ::::::::::::::::::::::::"
};
