/* XPM */
static char *_ad20a91e0844d54b310c653f4611140Z0kucAhJwPd7vDIK[] = {
/* columns rows colors chars-per-pixel */
"64 64 183 2 ",
"   c black",
".  c #080202",
"X  c #100404",
"o  c #310D37",
"O  c #202020",
"+  c #252121",
"@  c #262525",
"#  c #2C2C2C",
"$  c #343131",
"%  c #383535",
"&  c gray22",
"*  c #541616",
"=  c #5F1818",
"-  c #731E1E",
";  c #7E1E1F",
":  c #6D1A27",
">  c #6F1A2A",
",  c #6D1A30",
"<  c #7A202F",
"1  c #7D212D",
"2  c #7A2031",
"3  c #000040",
"4  c #00004C",
"5  c #0E0354",
"6  c #000058",
"7  c #0E045E",
"8  c #150554",
"9  c #10045B",
"0  c #290B49",
"q  c #000064",
"w  c #0C0360",
"e  c #1A076C",
"r  c #000070",
"t  c #0E0473",
"y  c #0C0377",
"u  c #00007C",
"i  c #080278",
"p  c #150574",
"a  c #290B62",
"s  c #2F0B73",
"d  c #2F0B7A",
"f  c #310D79",
"g  c #474342",
"h  c gray33",
"j  c #5D5353",
"k  c #595857",
"l  c #53525B",
"z  c #545358",
"x  c #54535C",
"c  c #5A5858",
"v  c #615F5E",
"b  c #785252",
"n  c #535260",
"m  c #636160",
"M  c #666362",
"N  c #6B6967",
"B  c #6C6866",
"V  c #6E6B69",
"C  c #74716F",
"Z  c #7A7776",
"A  c #7B7876",
"S  c #811F1F",
"D  c #841F1F",
"F  c #871F20",
"G  c #832020",
"H  c #852323",
"J  c #852326",
"K  c #802424",
"L  c #8B2021",
"P  c #8F2222",
"I  c #8A2424",
"U  c #8D2525",
"Y  c #932124",
"T  c #952224",
"R  c #932626",
"E  c #952426",
"W  c #9E2326",
"Q  c #982727",
"!  c #9E2626",
"~  c #A22427",
"^  c #A62628",
"/  c #A52828",
"(  c #AB2B2B",
")  c #AE2B2B",
"_  c #AB2A2C",
"`  c #AE2B2E",
"'  c #B12B2B",
"]  c #B02A2C",
"[  c #B62B2D",
"{  c #B32C2C",
"}  c #B42C2C",
"|  c #BA2B2D",
" . c #B82E2F",
".. c #BE2F2F",
"X. c #A42932",
"o. c #AA2A32",
"O. c #B32E30",
"+. c #BE2F31",
"@. c #BE2F34",
"#. c #BF3033",
"$. c #C1292F",
"%. c #CB2731",
"&. c #CC2731",
"*. c #C72F35",
"=. c #CE2932",
"-. c #CE2934",
";. c #D12C36",
":. c #D52F38",
">. c #C23030",
",. c #C73131",
"<. c #C43236",
"1. c #C93232",
"2. c #CB3232",
"3. c #CF3234",
"4. c #C93338",
"5. c #D03038",
"6. c #D6313B",
"7. c #D7323C",
"8. c #D3363E",
"9. c #DB333A",
"0. c #D8333E",
"q. c #DA343F",
"w. c #DE363F",
"e. c #E73A3A",
"r. c #EB3B3B",
"t. c #962546",
"y. c #DC3640",
"u. c #DA3942",
"i. c #DD3842",
"p. c #DF3944",
"a. c #E13B45",
"s. c #84817F",
"d. c #060286",
"f. c #0B0380",
"g. c #000088",
"h. c #0B038F",
"j. c #0C038E",
"k. c #1A0782",
"l. c #070294",
"z. c #080291",
"x. c #000098",
"c. c #0C0399",
"v. c #171691",
"b. c #17169A",
"n. c #262683",
"m. c #0200A2",
"M. c #0000A4",
"N. c #0E03A6",
"B. c #0100AF",
"V. c #0000B0",
"C. c #0702B7",
"Z. c #0000BC",
"A. c #2D2CA5",
"S. c #2D2CB7",
"D. c #0000C8",
"F. c #0000D4",
"G. c #0000E0",
"H. c #4040FC",
"J. c #95908F",
"K. c #9A9796",
"L. c #9D9A99",
"P. c #9F9C9A",
"I. c #A4A09F",
"U. c #A39EA1",
"Y. c #A49FA0",
"T. c #A9A5A3",
"R. c #ABA6A5",
"E. c #B2AFAE",
"W. c #B2B0AF",
"Q. c #B7B1AF",
"!. c #BCB8B6",
"~. c #C1BCBB",
"^. c #C4BEBC",
"/. c #CCBEB8",
"(. c #FCAAAA",
"). c #CEC0BB",
"_. c #D3C3BD",
"`. c #C9C3C1",
"'. c #CCC6C3",
"]. c #CDC7C4",
"[. c #D2CAC8",
"{. c #D3CCCA",
"}. c #D4CDCA",
/* pixels */
"& r u u u u u u u u u u u u u u u u u u u r & & g.g.g.g.g.g.g.g.g.g.g.g.g.g.g.g.g.g.g.g.g.g.g.g.g.g.g.g.& & r u u u u u u u r # ",
"O M.M.M.M.M.M.M.M.M.M.M.M.M.M.M.M.M.M.M.M.M.O O Z.Z.Z.Z.Z.Z.Z.Z.Z.Z.Z.Z.Z.Z.Z.Z.Z.Z.Z.Z.Z.Z.Z.Z.Z.Z.Z.Z.O O V.V.V.V.V.V.V.V.V.O ",
"I I c.M.g.M.u M.M.x.u x.x.u x.x.u M.u r r 6   O Z.M.Z.V.u M.Z.x.r r x.g.M.M.g.r g.M.Z.M.g.x.M.Z.Z.M.x.r   O V.Z.M.x.M.V.V.j.I I ",
"I I I I f.x.x.x.u u M.x.M.q x.x.u r u u r q   O Z.Z.M.k J.x.r x.6 r 6 J.k M.M.q r r q r r 6 r g.g.r q r   O V.V.M.M.u h.I I I I ",
"I { I I I I D.x.u u u x.g.g.u q 6 u r 6 6 q   O       {.}.O         O }.{.                                O V.M.V.Z.I I I I { I ",
"I O.a.I { ( I { I I 1 m.x.x.x.g.r r u 6 6 3   O M.M.n.}.}.{.M.M.M.M.{.}.}.n.M.M.M.M.M.O O O O O O O O O O K I I { I ( { I a.O.I ",
"I } p.a.a.| { { { { U I I z.x.r r q 6 q r q   O M.Z.m {.}.}.U.x.Z.Y.}.}.{.m V.Z.Z.M.M.  O M.M.M.M.x.z.I I U { { { { | a.a.p.} I ",
"I I $.a.a.a.6.e. .a. .{ Q E < g.u q q 6 3 3   O M.b.V K.Q.}.}.S.A.}.}.Q.K.V v.M.M.x.M.  O M.x.x.g.2 E Q {  .a. .e.6.a.a.a.$.I I ",
"* I R =.a.a.a.a.3.4.a.a.a.%.-.%.&._ I I J 3   O M.c [.{.R.`.[.}.}.[.`.R.{.[.c u x.M.u H I I _ &.%.-.%.a.a.a.4.3.a.a.a.a.=.R I * ",
"  f I } =.a.i.y.a.:.{ #.a.a.a.a.a.a.a.a.a.5.r.- ; c }.K.}.}.{.}.}.{.}.}.K.}.c ; > r.5.a.a.a.a.a.a.a.a.a.#.{ :.a.y.i.a.=.} I o   ",
"  x.a I ) %.a.a.9.a.a.>.{ %.a.a.a.a.a.a.a.a. .; b Z ^.K.I.^.}.}.}.}.^.I.K.^.Z b ;  .a.a.a.a.a.a.a.a.%.{ >.a.a.9.a.a.%.) I 0 3   ",
"  x.g.k.I ( %.a.%.;.a.a.a.} { { { { *.p.a.>.{ P c }.}./.@ g '.}.}.'.g @ /.}.}.c P { >.a.p.*.{ { { { } a.a.a.;.%.a.%.( I e u 3   ",
"  x.u x.u 7 ( %.r.&.%.w.a.a.a.1.{ { { 1.>.{ { ' c K.{.c $ @ E.E.E.E.@ $ c {.K.c ' { { >.1.{ { { 1.a.a.a.w.%.&.r.%.( t q u u 3   ",
"  x.x.u u u r w ` { e.7.-.0.a.a.a.8.{ { ) [ { ; M {.}.{.$ c !.E.E.!.c $ {.}.{.M ; { [ ' { { 8.a.a.a.0.-.7.e.{ ` y r 6 6 6 6 3   ",
"  x.u x.q q r q i { { u.a.a.;.0.a.a.a.~ %.%.S G V }.}.}.}.}.}.{.{.}.}.}.}.}.}.V G S %.%.~ a.a.a.0.;.a.a.u.{ { .                 ",
"                    . ) { <.p.$.%.q.a.a.{ ) S j Q.{.}.}.~.W.B % % B W.~.}.}.{.Q.j S ) { a.a.q.%.$.p.<.{ ) + O O O O O O O O O O ",
"M.Z.V.M.V.M.M.M.M.M.V.M.M.o.{ { { { } 8.{ { ; k K.{.}.}.}.Q._.% % _.Q.}.}.}.{.K.k ; { { 8.} { { { { o.q   O M.M.M.M.  Z.Z.Z.Z.Z.",
"Z.V.M.x.M.Z.V.M.g.M.M.u M.x.u / { { ` a.a.! { ; c v P.K.].}.E.).).E.}.].K.P.v c ; { ! a.a.` { { X.u r 6   O M.V.g.u   Z.Z.M.V.Z.",
"Z.V.x.x.g.M.M.g.u x.x.u u x.x.  N.C.' { / ; ; ; ; { C K.K.T.L.$ $ L.T.K.K.C { ; ; ; ; / { ' l.5 6 6 q 3   O M.V.V.u   Z.M.V.V.V.",
"V.M.x.V.V.x.x.u u u x.u u u u   V.Z.V.V.x.x.q   ; ; x N A K.$ (.(.$ K.A N z ; ; q 6 3   O x.u 6 q 6 6 3   O M.g.u 6   Z.Z.Z.V.V.",
"M.g.x.V.Z.V.u u x.x.u x.6 u u   V.Z.x.u x.x.q ; 1.1.S , n V s.(.(.s.V l : S 1.1.; 3 3   O x.u q 6 6 3 3   O M.6 q 6   Z.Z.V.V.V.",
"M.M.g.x.V.F.u x.u u q q r u u   V.x.Z.u u u 9 1...W S D = c v (.(.v c = D S W ..1.X     O                           O Z.Z.M.M.x.",
"V.g.u g.x.M.x.u u x.q r u 6 6   V.x.x.q u u ,.1.^ S S ~ F O O c c O O F ~ D S ^ 1.,.O O O O O O O V.V.V.V.V.V.V.V.O O Z.M.M.x.x.",
"V.M.g.x.u x.u x.x.u r u q u 6   V.Z.x.g.q +.1.1.S S T ~ Y V.V.V.V.V.V.T ~ T S S 1.1.@.V.V.x.M.O O V.D.V.D.M.M.M.x.  O Z.V.x.x.x.",
"V.V.x.g.V.x.x.x.x.u u r 6 6 6   M.Z.u g.>.1.1.,.S T ~ T s Z.Z.Z.V.Z.M.d T ~ T S ,.1.1.>.u M.6   O V.D.V.D.D.M.x.g.  O Z.Z.x.x.x.",
"V.M.g.u g.V.V.q u x.g.g.r 6 q   M.u q r 1.1.{ S D ~ ~ L V.D.G.G.Z.F.G.M.L ~ ~ D S { 1.1.M.u 6   O V.D.D.D.D.M.g.u   O Z.V.Z.M.M.",
"M.x.u g.M.V.V.M.x.u g.g.r 6 q   x.u 6 6 8 1.1.1.] ~ ~ ^ Z.F.F.G.Z.G.F.F.^ ~ ~ ] 1.1.1.p M.6 6   O V.V.M.D.M.g.M.q   O Z.Z.Z.M.M.",
"V.x.V.x.x.M.V.M.q u r r r 6 6               1.1.1.1.~ P V.V.D.D.M.M.F.F.P ~ 1.1.1.1.m.u u 6 6   O V.D.M.M.M.M.g.q   O Z.Z.Z.V.V.",
"M.g.g.M.M.x.M.M.q r 6 q 6 3 3   O O O O O O O ,.1.1.~ ; V.V.V.M.M.M.Z.M.; ~ 1.1.<.u u 6 6 6 q   O V.D.D.M.M.g.u r   O Z.M.M.Z.V.",
"M.x.g.M.M.M.x.u r q 6 q q 6 6   O V.V.V.V.M.M.O + 1.1.t.Z.V.g.g.M.Z.V.u t.1.1.d.g.g.r r r 6 6   O V.D.D.x.x.M.M.6   O Z.M.M.V.V.",
"x.g.x.g.M.M.u q q 6 6 6 q 3 q   O V.V.g.M.x.g.  O B.Z.B.Z.V.g.g.M.M.M.u m.M.m.r g.g.6 r r r 3   O V.V.D.x.x.x.M.6   O Z.Z.x.x.u ",
"x.g.g.u g.g.u q q r u u q 3 3   O V.M.M.x.g.x.  O V.Z.Z.M.V.V.V.x.M.u u u M.M.r 6 q 6 q r r 3   O V.V.M.g.V.M.M.q   O Z.g.g.x.x.",
"x.g.M.x.r u u r q r u u q 6 3   O V.M.x.g.r q   O V.Z.M.u M.V.V.M.M.u r u q r r r 6 3 3 6 3 3   O V.V.D.g.V.V.x.q   O Z.g.g.u u ",
"x.M.x.g.g.u q q 6 4 4 r q 6 3   O V.V.g.V.g.6   O V.M.M.Z.u M.M.x.u r u u q q r r q 3 3 q q 3   O V.M.D.M.g.x.x.6   O Z.Z.u u u ",
"u x.x.g.u u u u 6 4 4 6 6 q 3   O V.V.V.r r q   O V.u Z.u M.M.u u r q u u u q q 6 6 q q q 4 3   O V.D.M.M.x.6 r q   O Z.M.M.x.x.",
"u g.g.u r u u u 6 6 q 6 6 6 6   O V.V.V.M.6 6   O V.M.Z.u M.M.r q q 6 u u u q 6 6 6 6 4 4 4 3   O V.D.M.x.u x.r 6   O Z.M.M.x.g.",
"u g.q r u q u u 6 q 6 3 6 q 6   O V.x.x.6 g.q   O V.M.u M.M.u 6 6 6 6 q q q q 6 3 3 3 3 3 3 3   O V.D.M.u x.x.u q   O Z.x.M.M.u ",
"u x.u q u q r 6 q 3 3 6 3 3 3   O V.x.x.V.6 q   O                                               O M.V.M.u q u u q   O Z.x.g.g.u ",
"u g.x.g.r u r 6 6 6 3 q 3 6 3   O V.V.g.V.g.6   O O O O O O O O O O O O O O O O O O O O O O O O O M.V.V.M.u 6 q 3   O Z.Z.g.g.u ",
"u x.g.u q r u r 3 3 3 3 3 3 3   O V.V.g.g.6 q   O M.M.M.M.M.M.M.M.M.M.M.M.M.M.M.M.M.M.M.M.M.M.O O M.V.M.Z.M.u q 3   O Z.x.x.u g.",
"                                O V.V.u u 6 6   O M.Z.Z.Z.Z.Z.Z.V.M.M.M.M.M.M.M.x.g.u Z.x.M.u   O M.D.M.M.Z.g.6 3   O           ",
"O O O O O 6 6 r r g.g.g.u r q O O M.V.u u u 6   O V.Z.D.D.Z.M.M.V.V.D.Z.x.x.M.M.x.u g.u g.x.u   O M.M.M.M.g.g.6 3   O g.x.g.g.  ",
"O x.M.V.Z.Z.Z.Z.Z.Z.Z.Z.Z.Z.Z.O O M.M.g.u u q   O V.Z.D.D.D.V.V.V.V.Z.Z.u u u u M.M.M.x.x.u q   O M.D.M.u r 6 6 3   O x.x.u u   ",
"O M.Z.Z.Z.Z.Z.V.M.V.Z.M.M.M.Z.  O M.M.x.6 q q   O V.Z.Z.Z.Z.F.F.V.V.V.u u u u u u x.u u r x.q   O M.V.g.r q 6 r 3   O x.u r r   ",
"O M.Z.V.V.F.F.V.Z.Z.Z.x.M.Z.Z.  O M.x.g.6 6 6   O V.Z.Z.V.Z.F.F.F.u M.x.u u r r r g.u u u u q   O M.M.r q r 6 6 3   O x.r u 6   ",
"O Z.Z.Z.V.F.F.Z.x.x.M.Z.Z.x.V.  O               O M.V.Z.V.Z.Z.F.F.Z.M.M.x.u r r q q 6 u u u q   O g.u u 6 6 6 q 3   O g.u r 6   ",
"O Z.M.V.M.V.V.V.x.x.x.Z.M.g.g.  O O O O O O O O O M.M.V.D.x.x.Z.M.Z.M.M.M.M.u u q q u q 6 4 4   O                   O g.r 6 q   ",
"O Z.Z.V.x.g.V.V.M.x.x.M.Z.Z.M.  O Z.Z.V.M.M.x.O O M.M.D.D.x.x.x.V.M.M.M.u u x.g.r q q 6 6 3 3   O O O O O O O O O O O O O O O   ",
"O Z.Z.x.M.Z.V.g.M.V.V.V.u M.M.  O Z.u Z.g.x.g.  O M.Z.Z.Z.V.x.x.Z.Z.Z.M.u u u u q q q 6 6 3 3   O V.V.V.V.Z.Z.Z.Z.Z.Z.Z.Z.Z.Z.  ",
"O Z.Z.Z.Z.M.g.Z.g.V.u u M.g.M.  O Z.M.V.V.x.u   O M.V.M.M.V.V.V.Z.Z.Z.Z.M.u g.r 6 q q q r 6 4   O V.V.M.M.V.V.V.V.M.g.Z.M.M.u   ",
"O Z.M.Z.x.M.M.Z.V.x.u 4 u M.M.  O Z.Z.u M.u r   O M.Z.M.M.M.x.M.Z.Z.Z.Z.M.M.M.6 6 6 6 q r r q   O V.M.V.F.F.V.V.V.x.M.M.M.x.u   ",
"O Z.V.x.x.Z.G.Z.M.g.M.u u M.M.  O Z.V.M.M.u M.  O M.Z.Z.M.M.Z.g.g.Z.Z.Z.M.M.M.r 6 6 q 6 4 4 4   O V.Z.Z.F.D.D.V.V.g.g.M.x.u q   ",
"O Z.M.Z.M.G.H.G.x.x.M.x.g.u g.  O Z.V.M.u M.r   O M.M.Z.x.x.u u u g.M.M.M.u u u q q 6 6 6 3 3   O V.x.Z.x.D.D.V.V.M.M.u u u 6   ",
"O Z.V.Z.V.Z.G.Z.M.u M.M.4 4 q   O Z.M.V.V.u q   O M.M.Z.M.g.g.u u u g.u g.6 6 x.x.r r 6 4 3 3   O V.Z.V.x.x.x.M.M.u u u u 6 q   ",
"O Z.M.Z.V.V.V.g.g.g.u r 4 4 q   O Z.Z.V.x.g.q   O M.x.Z.Z.x.Z.u u g.u u g.u 6 x.x.g.r r q 6 q   O V.V.M.x.x.x.M.u r q u 6 6 q   ",
"O M.Z.V.V.M.u u x.M.x.x.u q q   O Z.V.M.g.g.u   O M.Z.x.M.Z.M.g.u r r g.g.6 6 u x.x.u r 6 6 3   O V.V.x.M.x.x.M.u r q r u 6 6   ",
"O Z.M.Z.V.g.g.V.u M.M.x.r u 6   O Z.M.Z.u u u   O M.Z.M.M.M.x.g.M.M.r r 6 r 6 6 u u u q 6 6 3   O V.V.Z.V.g.V.V.x.u q x.x.6 3   ",
"O Z.M.Z.M.x.g.u q g.M.M.x.r q   O Z.Z.M.q q q   O M.M.M.x.x.u g.M.M.M.r q r r 6 4 4 4 q 3 3 3   O Z.Z.V.g.M.V.V.V.x.u x.x.u 3   ",
"O V.M.g.g.g.M.q 4 q g.x.x.r r   O Z.V.M.u r 6   O M.V.M.x.x.Z.M.u M.M.6 6 r r q 6 3 3 6 3 3 3   O Z.V.M.g.M.M.V.V.x.u u u u 3   ",
"O V.M.r q g.q M.u u x.6 q 6 6   O V.M.q q q 6   O M.V.Z.u Z.Z.M.6 q q q 6 6 4 4 4 3 3 4 6 3 3   O Z.V.M.Z.M.M.u g.r r u u 6 3   ",
"O M.M.g.g.q g.6 q 6 q r q r q   O V.M.g.r q q   O M.M.V.Z.M.u x.6 q q q 6 6 3 3 r r q 3 4 3 6   O Z.Z.Z.x.M.u u r u u r q 3 q   ",
"O M.x.u u u u u r r r r u u u O O M.g.u u u u O O M.M.x.M.x.u u u u u u r q 6 6 u u u u 6 6 r O O Z.M.M.u x.M.u u u u u r r u   ",
"& g.g.g.u u u u u u u u u u u & & g.g.u u u u & & M.D.g.g.g.g.g.u u u u u u u u u u u u u u u & & Z.g.g.u u u u u u u u u u u O ",
"h h h h h h h h h h h h h h h h h h h h h h h h h h h h h h h h h h h h h h h h h h h h h h h h h h h h h h h h h h h h h h h & "
};
