/* XPM */
static char *a308a1d2834c42a097643df57e4cd8b2JcwIRR6BmC0xtVOC[] = {
/* columns rows colors chars-per-pixel */
"64 64 155 2 ",
"   c #000000",
".  c #080202",
"X  c #0A0A0A",
"o  c #150505",
"O  c #020213",
"+  c #151515",
"@  c #1D1D1D",
"#  c #1F1F24",
"$  c #1D1D29",
"%  c #0B0B39",
"&  c #121235",
"*  c #202020",
"=  c #292727",
"-  c #2C2C2C",
";  c #343131",
":  c #393636",
">  c gray22",
",  c #541616",
"<  c #7F1E1E",
"1  c #5F183B",
"2  c #6E1A2E",
"3  c #7F1E20",
"4  c #6E1A33",
"5  c #7A2020",
"6  c #7D212D",
"7  c #7C2134",
"8  c #000041",
"9  c #0D0D46",
"0  c #00004F",
"q  c #0B034C",
"w  c #0B0B4C",
"e  c #15064B",
"r  c #000055",
"t  c #0B0B54",
"y  c #00005E",
"u  c #171651",
"i  c #2C0B42",
"p  c #22205F",
"a  c #000064",
"s  c #0A0361",
"d  c #000069",
"f  c #09066B",
"g  c #000071",
"h  c #090973",
"j  c #01017B",
"k  c #09097D",
"l  c #1A0779",
"z  c #2F0B6F",
"x  c #310D61",
"c  c #262665",
"v  c #2D2C7F",
"b  c #5F1843",
"n  c #54166A",
"m  c #474342",
"M  c #5D5353",
"N  c #5A5857",
"B  c #545458",
"V  c #5A5858",
"C  c #615E5E",
"Z  c #785252",
"A  c #535260",
"S  c #656261",
"D  c #6C6967",
"F  c #6E6B69",
"G  c #74716F",
"H  c #7A7776",
"J  c #7B7876",
"K  c #831F1F",
"L  c #871F20",
"P  c #842223",
"I  c #8A2424",
"U  c #952325",
"Y  c #9C2526",
"T  c #962537",
"R  c #A22427",
"E  c #A72628",
"W  c #A52929",
"Q  c #AC2B2B",
"!  c #B32C2C",
"~  c #BA2D2E",
"^  c #A72A37",
"/  c #B32E30",
"(  c #BE2F34",
")  c #BF3033",
"_  c #C1292F",
"`  c #CB2731",
"'  c #C72F35",
"]  c #CE2933",
"[  c #D12C36",
"{  c #D52F38",
"}  c #C33032",
"|  c #CB3232",
" . c #C93338",
".. c #D3333B",
"X. c #DA343D",
"o. c #E7393A",
"O. c #EA3B3B",
"+. c #DC3640",
"@. c #DD3943",
"#. c #E13B45",
"$. c #84817F",
"%. c #000080",
"&. c #0C0380",
"*. c #090983",
"=. c #00008C",
"-. c #09098B",
";. c #000091",
":. c #090993",
">. c #00009D",
",. c #0B0398",
"<. c #09099B",
"1. c #150593",
"2. c #17169A",
"3. c #290B97",
"4. c #310D9B",
"5. c #2D2C8A",
"6. c #262691",
"7. c #0000A1",
"8. c #0303AB",
"9. c #0101B2",
"0. c #0E03B2",
"q. c #0000B8",
"w. c #0C03BB",
"e. c #1004B3",
"r. c #0000C4",
"t. c #0B03C4",
"y. c #0000CA",
"u. c #0000D7",
"i. c #0B06D6",
"p. c #0201DD",
"a. c #0000E5",
"s. c #0D0FE2",
"d. c #1215E4",
"f. c #1113E8",
"g. c blue",
"h. c #2024FF",
"j. c #95908F",
"k. c #9A9796",
"l. c #9E9B9A",
"z. c #A49F9F",
"x. c #A4A09F",
"c. c #A39EA0",
"v. c #AAA6A4",
"b. c #B2AFAE",
"n. c #B5B1AF",
"m. c #BCB8B6",
"M. c #C3BDBC",
"N. c #CCBEB8",
"B. c #FCAAAA",
"V. c #CEC0BB",
"C. c #D3C3BD",
"Z. c #CBC5C3",
"A. c #D2CBC9",
"S. c #D3CCCA",
"D. c #D4CDCA",
/* pixels */
"* * * * * * * * * * * * * * * * * * ;.y.r.y.y.q.7.9.q.%.%.0 0 8 8 * * * * * # * # * * * * * =.r.y.y.y.y.r.r.y.y.%.%.=.j =.=.=.* ",
"* y.y.y.y.y.y.y.%.=.y.y.9.r.g %.0 * y.y.y.8.y.9.q.y.q.q.;.y g g y 0 * * * * * * * * * * * * y.y.y.y.y.r.y.r.y.r.9.9.q.g 8.y.9.  ",
"I I w.y.y.9.9.r.9.9.9.7.%.7.;.%.r   y.9.y.y.y.y.y.%.;.7.y g y 0 y g * r.r.7.8.q.8.r.r r   * d.y.y.y.y.y.y.y.9.7.7.7.j j 8.&.I I ",
"I I I I w.y.9.9.9.9.8.%.%.=.%.%.%.  y.9.y.q.y.q.%.0 g N j.0 0 y g %.X j.N y.y.y.r.y.y.g   * h.y.y.f.h.y.y.r.7.y.7.7.j ,.I I I I ",
"I ! I I I I ;.%.%.8.9.%.;.%.9.0 0   y.q.y.y.q.y.7.g %.S.D.p y y 0 g = D.S.>.>.y.y.y.r.r   * s.h.q.y.y.y.y.9.8.y.9.7.I I I I ! I ",
"I / #.I ! Q I ! I I 6 ;.8.%.>.0 0   q.y.y.q.u.7.;.%.c D.D.S.0 g g 0 S.D.D.6.9.j r.y.r r   * h.d.u.h.u.y.y.7 I I ! I Q ! I #./ I ",
"I ! @.#.#.~ ! ! ! ! I I I q 0 0 0   7.q.q.;.%.;.;.g S S.D.D.c.0 0 z.D.D.S.S y.>.y.d r r   * h.y.y.y.t.I I I ! ! ! ! ~ #.#.@.! I ",
"I I _ #.#.#...o.~ #.~ ! Y U 5       7.q.;.%.7.;.g u F k.n.D.D.v 5.D.D.n.k.F 2.r.r.j d d   * i.y.y.7 U Y ! ~ #.~ o...#.#.#._ I I ",
"n I U ] #.#.#.#.|  .#.#.#.` ] ` ` Q I I P y.q.7.%.V A.S.v.Z.A.D.D.A.Z.v.S.A.V r.%.d d P I I Q ` ` ] ` #.#.#. .| #.#.#.#.] U I , ",
">.4.I ! ] #.@.+.#.{ ! ) #.#.#.#.#.#.#.#.#...O.2 < V D.k.D.D.S.D.D.S.D.D.k.D.V < 4 O...#.#.#.#.#.#.#.#.#.) ! { #.+.@.#.] ! I x   ",
"u.u.3.I Q ` #.#.X.#.#.} ! ` #.#.#.#.#.#.#.#.~ < Z H M.k.x.M.D.D.D.D.M.x.k.M.H Z < ~ #.#.#.#.#.#.#.#.` ! } #.#.X.#.#.` Q I i =.  ",
"y.u.9.l I Q ` #.` [ #.#.#.! ! ! ! ! ' @.#.} ! I V D.D.N.= m Z.D.D.Z.m = N.D.D.V I ! } #.@.' ! ! ! ! ! #.#.#.[ ` #.` Q I e r d   ",
"r.u.7.u.u.t.Q ` O.` ` X.#.#.#.| ! ! ! | } ! ! ! V k.S.V ; = b.b.b.b.= ; V S.k.V ! ! ! } | ! ! ! | #.#.#.X.` ` O.` Q q a 0 r 0   ",
"u.u.y.y.8.u.>.s Q ! o...] X.#.#.#...! ! Q ! ! < S S.D.S.; V m.b.b.m.V ; S.D.S.S < ! ! ! ! ! ..#.#.#.X.] ..o.! Q q r r 0 r 0 g   ",
"j y.9.7.j a a j s ! ! @.#.#.[ X.#.#.#.R ` ` K P F D.D.D.D.D.D.S.S.D.D.D.D.D.D.F P K ` ` R #.#.#.X.[ #.#.@.! ! f g g r d y y 0   ",
"-                   . Q ! } @._ ` X.#.#.! Q K M n.S.D.D.M.n.D : : D n.M.D.D.S.n.M K Q ! #.#.X.` _ @.} ! Q .                     ",
"q.y.y.q.r.9.9.9.9.9.r.9.9.^ ! ! ! ! ! ..! ! < N k.S.D.D.D.n.C.: : C.n.D.D.D.S.k.N < ! ! ..! ! ! ! ! Q * * * * * *   u.u.u.u.u.u.",
"y.y.q.7.q.y.y.q.;.q.q.%.q.7.%.W ! ! Q #.#.Y ! < V C l.k.Z.D.b.V.V.b.D.Z.k.l.C V < ! Y #.#.Q ! ! ^ y.p.8.-.*.*.@ *   u.p.u.a.y.u.",
"y.y.7.7.;.q.q.;.%.7.7.%.%.7.7.X 0.,.! ! W < < < < ! G k.k.v.l.; ; l.v.k.k.G ! < < < < W ! ! p.i.u.y.8.8.%.7.t   *   q.u.a.g.a.y.",
"y.q.7.y.y.7.7.%.%.%.7.%.%.j %.X r.>.f >.9.9.9.=.< 3 B D J k.; B.B.; k.J D B < < d d r   * a.a.9.u.8.u.<.u.-.t   #   q.u.u.a.y.u.",
"q.;.7.y.y.y.%.%.7.7.%.7.0 %.%.X y.>.y.j 9.j 9.< | | K 4 A F $.B.B.$.F B 2 K | | < r d   * a.a.a.y.8.-.%.*.%.%.  #   y.u.u.y.q.y.",
"q.q.;.7.y.y.%.7.%.%.y y g %.%.X y.>.=.y.r.y.e.| ~ Y K K b V C B.B.C V 1 K K Y ~ | q d   * <.9.<.8.9.%.;.%.%.9   *   y.u.u.y.u.q.",
"y.;.%.;.7.q.7.%.%.7.y g %.0 0 X y.9.9.y.y.y.} | E K K R L 9.j V V =.d L R K K E | } r   $ 9.a.%.-.%.%.%.=.%.%.  *   y.u.y.y.y.q.",
"y.q.;.7.%.7.%.7.7.%.g %.y %.0 X y.y.9.y.y.( | | K K U R U >.>.=.j j j U R U K K | | (   * t u.8.%.9 t % h j 9   * . y.u.y.q.7.y.",
"y.y.7.;.r.7.7.7.7.%.%.g 0 0 0 X y.9.=.9.} | | } K U R U z >.>.d d =.>.i U R U K } | | } * *                     * . q.u.u.y.u.u.",
"y.q.;.%.;.y.y.y %.7.;.;.g 0 y X y.>.>.>.| | ! K K R R I d r j r >.j =.j I R R K K ! | | * y.8.<.<.<.h h h & & & &   q.u.y.u.y.y.",
"q.7.%.;.q.y.y.q.7.%.;.;.g 0 y X 9.=.>.y.1.| | | ! R R E r r r j d =.j d E R R ! | | | o * q.<.<.<.:.-.k h 9 & y w   q.u.u.u.y.q.",
"y.7.y.7.7.q.y.q.y %.g g g 0 0 X 9.>.9.=.=.r.| | | | R I r r r d d >.8 8 I R | | | | r   * q.y.q.y.q.7.%.g y y g 0   ;.u.u.u.y.y.",
"q.;.;.q.q.7.q.q.y g 0 y 0 0 0 X 9.=.9.=.d >.>.} | | R < d r j r j r 8 8 < R | | } d r   * q.q.7.q.;.7.;.%.0 0 0 0   ;.u.y.u.u.q.",
"q.7.;.q.q.q.7.%.g y 0 y 8 8 0 X 9.9.=.=.=.j d r r | | T j d d r r r r 8 T | | r r r r   * q.7.q.;.%.%.%.%.0 0 0 0   ;.u.u.y.y.y.",
"7.;.7.;.q.q.%.y y 0 0 0 8 8 y X 9.=.9.a d j d =.d j r r d r d d d d r r r r r r r r r   * q.7.y.q.7.;.g g 0 g 0 0   ;.u.u.y.7.q.",
"7.;.;.%.;.;.%.y y g %.%.y 0 y X             X + + + + + + X                             * q.q.y.y.q.;.g y %.%.0 0   ;.u.y.u.y.7.",
"7.;.q.7.g %.%.g y g %.%.y 0 0   * * * * * * * 9.8.>.=.g * * r.r.y.y.y.9.8.8.<.>.>.>.>.  * q.q.y.y.q.q.7.%.y %.y 0   ;.u.y.u.;.;.",
"7.q.7.;.;.%.y y 0 y g g y 0 0   * 7.q.>.>.>.* y.y.r.y.%.  * r.r.9.9.>.y.y.9.>.>.>.>.r   * q.y.y.q.7.7.7.7.;.y 0 0   ;.u.u.;.7.;.",
"%.7.7.;.%.%.%.%.0 y 8 0 0 y 0   * y.9.>.y.;.X 7.r.y.q.0   * y.9.y.y.>.9.9.=.>.=.y.j r   * q.y.y.q.7.%.7.7.;.%.g 0   g u.y.u.7.7.",
"%.;.;.%.g %.%.%.0 8 8 8 0 0 0   * >.9.y.7.;.X >.r.>.g ;.  * y.9.>.>.9.9.=.>.=.j r a r   * q.7.y.7.y.%.g ;.%.g y 0   g u.y.7.7.;.",
"%.;.y g %.y %.%.0 8 8 8 8 y 0   * r.9.y.q.;.X 9.r.y.g 0   * y.y.>.q.y.=.j j j >.d r r   * q.q.q.y.7.7.g g y y y 0   g y.y.7.;.;.",
"%.7.%.y %.y g 0 y 8 0 8 8 0 0   * =.9.;.g 0 X >.9.y.r.r   * y.y.y.*.>.=.j >.>.>.j a r   * q.u.q.7.7.g 0 0 g 0 0 0   g y.7.;.7.;.",
"%.;.7.;.g %.g 0 0 0 8 8 8 0 0   * h >.g 0 r X ;.9.y.8.g   * y.y.>.j >.>.>.=.>.=.d r r   * q.u.7.q.7.g y 0 0 g 0 0   g y.7.7.7.;.",
"%.7.;.%.y g %.g 0 0 y 0 0 y y   * w ;.a r a X r.y.y.j a   * y.9.>.*.j >.y.y.=.j =.r d   * 7.y.7.7.%.%.g y y 0 0 0   g 7.7.7.%.7.",
"                                * *         . 7.g y.%.a   * y.>.>.f =.=.>.>.j d r d r   * 7.q.7.%.0 %.0 0 y 0 0 0   *           ",
"* * * * * * * * * * * * * * * * * * * * * @ @ y.y.g g r   * 9.>.=.j j >.>.j =.d r d r   * ;.%.0 y r g g y 0 0 0 0   * * * * * * ",
"* * 7.q.y.u.y.y.9.8.;.9.>.g ;.=.*.w * * * * * >.g g g r   * 8.>.=.j j j >.r j r j r r   * ;.%.y y 0 0 0 0 y 0 g 0   * * * * * * ",
"* * q.y.y.a.y.p.7.a.q.>.j ;.;.;.g y   * * * * %.g g g r   * 9.=.>.j j d d j d r d d r   * *                         * * * * * * ",
"* * q.y.y.y.a.a.%.7.;.>.g g ;.d =.g   * * * * d g r g r   * >.>.j j d r r r r d r d r   * * * * * * * * * * * * * * * * * * * * ",
"* * y.y.u.y.a.g ;.8.g j g ;.;.j ;.r.  * * * * *           * >.d >.d d r r r r r r r r   * * y.y.y.y.y.y.y.y.y.y.y.y.y.y.y.y.q.* ",
"* * y.7.a.>.a.>.=.j =.;.j a g y y 0   * * * * * * * * * * * *     O                     * * y.y.u.u.y.y.q.q.y.y.y.q.q.y.y.q.;.  ",
"* * y.;.8.y.a.g j >.g =.g a y y r r   * r.q.r.r.8.r.9.,.8.8.8.h 9.9.k k -.<.:.j -.k h h * * y.y.y.u.y.q.u.u.q.y.q.7.y.y.7.7.;.  ",
"* * y.j %.;.;.g g j ;.=.;.;.y ;.0 r   * r.r.=.r.q.r.8.8.r.r.r.8.7.7.r.8.8.8.8.j 7.;.g g   * y.y.y.y.q.y.y.u.%.%.7.;.%.7.g ;.%.  ",
"* * %.g 0 0 r r 0 r 7.0 0 0 0 0 0 r   * r.r.r.r.r.r.8.r.r.8.r.8.r.%.%.%.8.=.j %.;.g 0 y   * y.y.u.y.q.y.y.q.%.%.%.7.q.%.%.%.g   ",
"* * *                               . * >.9.r.r.9.8.8.r.r.=.r.q.8.%.%.=.8.j y g j a r 0 . * y.y.y.a.a.q.7.q.7.%.%.q.;.;.7.y 0   ",
"* * * * * * * * @ # # * * * * # $ $ * * g r.r.r.8.8.9.8.r.y.y.r.%.=.%.>.j j y y r %.r r . * y.y.q.a.a.u.y.y.q.7.y.%.g 7.7.y 0   ",
"* * y.q.y.q.a.;.a.7.7.q.7.;.%.;.;.;.* * 8 r.r.8.r.9.r.r.8.y.9.8.9.8.j %.;.j y j y y y a . * y.y.q.7.u.u.q.7.%.7.%.;.7.7.%.y 0   ",
"* * y.y.y.y.y.a.y.q.%.q.q.y y y %.;.. * 8 q.8.7.7.y.q.q.r.r.q.9.8.8.8.%.j g y y r 0 0 0 . * y.q.q.y.7.;.7.;.q.;.%.;.q.;.g y 0   ",
"* * y.q.y.y.y.y.;.;.;.%.g y y y y g . * r.>.8.8.7.y.8.y.y.q.8.7.8.;.;.j %.=.y y r r r r . * y.y.q.7.7.;.;.%.;.7.7.7.;.g y 0 0   ",
"* * q.y.y.y.q.%.%.7.q.7.7.%.y y y y . * r.8.7.q.7.7.y.q.8.8.8.8.=.7.j j r r y j y d r a . * y.y.q.7.%.%.%.g %.;.7.%.y 0 y g 0   ",
"* * y.q.y.y.;.;.y.%.q.q.7.g %.0 g %.. * y j 8.r.8.7.%.%.j 8.8.=.=.j j 0 r y g d r 0 r y   * y.y.y.y.q.;.g 0 0 %.g 0 0 8 8 y 0   ",
"* * y.q.y.q.7.;.%.y ;.q.q.7.g y 0 %.. * 0 j 8.j 8.7.%.%.8.8.j ;.j j y a y y r 0 r y 0 0   * y.y.q.q.%.%.7.0 0 y g 0 0 8 8 8 0   ",
"* * y.q.;.;.;.q.y ;.y ;.7.7.g g y %.. * j r.8.;.8.j >.=.8.%.a j j y g %.0 0 a g y 0 0 0   * y.7.q.7.y.7.%.%.y g 0 g 0 0 8 8 0   ",
"* * y.q.g y ;.y q.%.%.7.0 y 0 0 y 0 . * j d j 8.;.7.>.>.j j j j d y r 0 r a 0 0 0 0 r 0   * y.y.q.%.7.g g %.0 y 0 0 0 y y y 0   ",
"* * q.q.;.;.y ;.0 y 0 y g y g y g 0 . * j a j j j j j j j g %.g y 0 0 y 0 d 0 0 0 0 0 0   * q.%.7.%.;.7.%.g y 0 y 0 y 0 0 0 0   ",
"* * q.7.%.;.7.g g g g g g y y y y y . * y j g a j d r r a d d d y r 0 0 0 0 0 r y g y g . * q.7.%.;.%.g g y y y y y y y y y y * ",
"> > %.%.%.%.%.%.%.%.%.%.%.%.%.%.%.%.. * g g j g g a y r 0 0 0 0 0 r g %.%.%.%.%.%.%.%.%.X > %.%.%.%.%.%.%.%.%.%.%.%.%.%.%.%.%.- ",
"B B B B B B B B B B B B B B B B B B B B B B B B B B B B B B B B B B B B B B B B B B B B B B B B B B B B B B B B B B B B B B B B "
};
