/* XPM */
static char *_95af3f25e3846a0f2c3ff0477eb8dd4rPDHFSDgsv9JGNSi[] = {
/* columns rows colors chars-per-pixel */
"64 64 143 2 ",
"   c #000000",
".  c #080202",
"X  c #0B0B0B",
"o  c #010112",
"O  c #00001B",
"+  c #1F1F23",
"@  c #181828",
"#  c #000034",
"$  c #00003D",
"%  c #310D37",
"&  c #202020",
"*  c #2C2121",
"=  c #2C2C2C",
"-  c #343131",
";  c #393636",
":  c gray22",
">  c #541616",
",  c #7F1E1E",
"<  c #5F182C",
"1  c #6D1A25",
"2  c #6E1A2B",
"3  c #6F1A30",
"4  c #7D2121",
"5  c #7A202C",
"6  c #7A2031",
"7  c #000040",
"8  c #00004C",
"9  c #000056",
"0  c #000059",
"q  c #0E045E",
"w  c #10045B",
"e  c #290B49",
"r  c #000064",
"t  c #0D0360",
"y  c #00006C",
"u  c #090469",
"i  c #10046A",
"p  c #1A076C",
"a  c #101064",
"s  c #000072",
"d  c #0D0475",
"f  c #0B0B77",
"g  c #00007C",
"h  c #08027A",
"j  c #171677",
"k  c #2D0B61",
"l  c #310D79",
"z  c #262663",
"x  c #474342",
"c  c gray33",
"v  c #5D5353",
"b  c #5A5857",
"n  c #54535A",
"m  c #5A5858",
"M  c #615E5E",
"N  c #785252",
"B  c #444463",
"V  c #484860",
"C  c #656261",
"Z  c #6C6967",
"A  c #6E6B69",
"S  c #74716F",
"D  c #7A7776",
"F  c #7B7876",
"G  c #831F1F",
"H  c #871F20",
"J  c #822121",
"K  c #8A2424",
"L  c #852328",
"P  c #952325",
"I  c #9C2526",
"U  c #A22427",
"Y  c #A72628",
"T  c #A52828",
"R  c #AC2B2C",
"E  c #B32C2C",
"W  c #BA2E2E",
"Q  c #A42931",
"!  c #AA2A32",
"~  c #B32E30",
"^  c #BE2F33",
"/  c #BF3033",
"(  c #C1292F",
")  c #CB2731",
"_  c #C72F35",
"`  c #CE2933",
"'  c #D12C36",
"]  c #D52F38",
"[  c #C33032",
"{  c #CB3232",
"}  c #C93338",
"|  c #D3333B",
" . c #DA343D",
".. c #E7393A",
"X. c #EA3B3B",
"o. c #962544",
"O. c #DC3640",
"+. c #DD3943",
"@. c #E13B45",
"#. c #84817F",
"$. c #000083",
"%. c #0A0381",
"&. c #080884",
"*. c #000089",
"=. c #0C038F",
"-. c #1A0782",
";. c #000095",
":. c #080897",
">. c #000099",
",. c #0C0399",
"<. c #150594",
"1. c #171695",
"2. c #242389",
"3. c #2D2C9B",
"4. c #0000A4",
"5. c #0000AD",
"6. c #1505A2",
"7. c #0000B0",
"8. c #0000BC",
"9. c #2D2CAE",
"0. c #0000C3",
"q. c #0000C9",
"w. c #0000D4",
"e. c #95908F",
"r. c #9A9796",
"t. c #9E9B9A",
"y. c #A4A09F",
"u. c #A49FA1",
"i. c #AAA6A4",
"p. c #B2AFAE",
"a. c #B5B1AF",
"s. c #BCB8B6",
"d. c #C3BDBC",
"f. c #CCBEB8",
"g. c #FCAAAA",
"h. c #CEC0BB",
"j. c #D3C3BD",
"k. c #C9C3C1",
"l. c #CCC6C3",
"z. c #CDC7C4",
"x. c #D2CBC9",
"c. c #D3CCCA",
"v. c #D4CDCA",
/* pixels */
": s g g g g g g g g & 7.5.7.s q & & & & & & & & & & & & & & & & & & & & & & & & & & & & & & & & & & & & & * s g g g g g g g s = ",
"& 4.4.4.4.4.4.4.4.4.  4.7.7.4.y & & & & & & & & & & & & & & 7.7.4.5.5.7.7.7.7.7.7.7.7.7.7.>.>.$.y r r *.& & 7.7.7.7.7.7.7.7.7.& ",
"K K ,.4.*.4.g 4.4.>.  5.7.7.7.y & & & & & & & & & & & & & & 4.;.;.;.;.;.>.;.;.4.7.7.7.7.5.>.;.r r r r s   & 7.8.4.>.4.7.7.=.K K ",
"K K K K %.>.>.>.g g   7.7.*.7.y & 5.*.*.*.;.y g g ;.y b e.& >.;.;.;.;.e.b ;.;.4.5.7.;.7.>.>.>.4.;.r r r   & 7.7.4.4.g =.K K K K ",
"K E K K K K q.>.g g   7.5.*.7.y & 7.7.7.7.7.5.7.;.5.y c.v.& >.;.>.;.2.v.c.7.5.7.7.*.*.*.;.>.>.>.>.r r r   & 7.4.7.8.K K K K E K ",
"K ~ @.K E R K E K K 4 5.>.*.>.y & 7.4.7.5.7.g 7.5.5.z v.v.c.4.;.;.;.c.v.v.2.7.7.5.*.;.*.;.4.>.>.*.;.r r . J K K E K R E K @.~ K ",
"K E +.@.@.W E E E E K K K %.s 7 & 7.>.7.;.4.;.>.5.5.C c.v.v.u.5.;.u.v.v.c.C 7.$.$.*.*.*.$.*.>.>.>.>.h K K K E E E E W @.@.+.E K ",
"K K ( @.@.@.| ..W @.W E I P 5 7 & 7.>.4.;.4.;.*.5.1.A r.a.v.v.9.3.v.v.a.r.A j $.5.4.*.$.$.$.>.>.;.6 P I E W @.W ..| @.@.@.( K K ",
"> K P ` @.@.@.@.{ } @.@.@.) ` ) ) R K K L 4.;.5.5.m x.c.i.k.x.v.v.x.k.i.c.x.m >.5.>.*.L K K R ) ) ` ) @.@.@.} { @.@.@.@.` P K > ",
"  l K E ` @.+.O.@.] E / @.@.@.@.@.@.@.@.@.| X.3 , m v.r.v.v.c.v.v.c.v.v.r.v.m , 2 X.| @.@.@.@.@.@.@.@.@./ E ] @.O.+.@.` E K %   ",
"  >.k K R ) @.@. .@.@.[ E ) @.@.@.@.@.@.@.@.W , N D d.r.y.d.v.v.v.v.d.y.r.d.D N , W @.@.@.@.@.@.@.@.) E [ @.@. .@.@.) R K e 7   ",
"  >.*.-.K R ) @.) ' @.@.@.E E E E E _ +.@.[ E K m v.v.f.* x l.v.v.l.x * f.v.v.m K E [ @.+._ E E E E E @.@.@.' ) @.) R K p g 7   ",
"  >.g >.g q R ) X.) )  .@.@.@.{ E E E { [ E E E m r.c.m - * p.p.p.p.* - m c.r.m E E E [ { E E E { @.@.@. .) ) X.) R d r g g 7   ",
"  >.>.g g g s t R E ..| `  .@.@.@.| E E R E E , C c.v.c.- m s.p.p.s.m - c.v.c.C , E E E E E | @.@.@. .` | ..E R d s 0 0 0 0 7   ",
"  >.g >.r r s r h E E +.@.@.'  .@.@.@.U ) ) G J A v.v.v.v.v.v.c.c.v.v.v.v.v.v.A J G ) ) U @.@.@. .' @.@.+.E E .                 ",
"                    . E E [ +.( )  .@.@.E R G v a.c.v.v.d.a.Z ; ; Z a.d.v.v.c.a.v G R E @.@. .) ( +.[ E R * & & & & & & & & & & ",
"4.8.7.4.7.4.4.4.4.4.7.4.4.! E E E E E | E E , b r.c.v.v.v.a.j.; ; j.a.v.v.v.c.r.b , E E | E E E E E R 7   & 4.4.4.4.  8.8.8.8.8.",
"8.7.4.>.4.8.7.4.*.4.4.g 4.>.g T E E R @.@.I E , m M t.r.z.v.p.h.h.p.v.z.r.t.M m , E I @.@.R E E Q r 8 7   & 4.7.*.g   8.8.4.7.8.",
"8.7.>.>.*.4.4.*.g >.>.g g >.>.  * u E E T , , , , E S r.r.i.t.- - t.i.r.r.S E , , , , T E E u t r 0 y 7   & 4.7.7.g   8.4.7.7.7.",
"7.4.>.7.7.>.>.g g g >.g g g g   & g >.>.>.>.g g , , n Z F r.- g.g.- r.F Z n , , >.$.g $.g y r r r 9 0 7   & 4.*.g 0   8.8.8.7.7.",
"4.*.>.7.8.7.g g >.>.g >.0 g g   & g >.>.$.g s , { { G 1 n A #.g.g.#.A n 1 G { { , y r r r r 0 8 7 7 7 7   & 4.0 r 0   8.8.7.7.7.",
"4.4.*.>.7.w.g >.g g r r s g g   & g g >.r s i { W I G G < m M g.g.M m < G G I W { w r r r y 7 7 7 8 r y   &         & 8.8.4.4.>.",
"7.*.g *.>.4.>.g g >.r s g 0 0   & 7 0 0 0 0 [ { Y G G U H   & m m     H U G G Y { [                       + & & & & & 8.4.4.>.>.",
"7.4.*.>.g >.g >.>.g s g r g 0   & &       W { { G G P U P   & & & & & P U P G G { { ^ 5.>.5.5.>.$.$.$.$.$.$.$.;.>.& & 8.7.>.>.>.",
"7.7.>.*.7.>.>.>.>.g g s 0 0 0   & d *.4.[ { { [ G P U P k *.*.*.*.*.*.k P U P G [ { { [ 5.5.5.4.5.5.7.7.$.$.$.$.s   & 8.8.>.>.>.",
"7.4.*.g *.7.7.r g >.*.*.s 0 r   & 5.7.7.{ { E G G U U K ;.*.*.*.*.>.>.>.K U U G G E { { 5.5.>.7.;.>.4.>.>.>.*.$.*.  & 8.7.8.4.4.",
"4.>.g *.4.7.7.4.>.g *.*.s 0 r   & *.7.7.<.{ { { E U U Y 5.>.;.>.>.7.>.>.Y U U E { { { 6.5.5.5.7.>.$.>.>.$.;.$.$.r   & 8.8.8.4.4.",
"7.>.7.>.>.4.7.4.r g s s s 0 0   & *.7.5.>.5.{ { { { U K 7.7.7.>.>.>.>.>.K U { { { { 5.5.5.4.7.4.>.$.>.*.$.$.$.g g   & 8.8.8.7.7.",
"4.*.*.4.4.>.4.4.r s 0 r 0 7 7   & *.7.4.7.7.7.[ { { U , >.;.$.>.>.>.>.g , U { { [ >.5.5.5.7.5.4.$.>.>.$.*.$.$.s *.  & 8.4.4.8.7.",
"4.>.*.4.4.4.>.g s r 0 r r 0 0   & *.7.7.7.7.4.>.5.{ { o.>.g $.g 5.>.>.g o.{ { . & 5.5.5.4.7.4.4.>.>.$.$.$.$.$.s 0   & 8.4.4.7.7.",
">.*.>.*.4.4.g r r 0 0 0 r 7 r   & *.5.7.7.7.>.5.7.>.y ;.4.7.g g *.;.>.r $.g r   & 5.5.5.7.>.$.>.>.*.$.$.$.g s s 0   & 8.8.>.>.g ",
">.*.*.g *.*.g r r s g g r 7 7   & 4.4.>.7.4.>.5.7.g 5.>.4.7.g *.g *.*.g g r r   & $.5.;.>.*.>.>.>.$.s $.s s s y 0   & 8.*.*.>.>.",
">.*.4.>.s g g s r s g g r 0 7   & 7.4.4.7.>.y 7.5.;.7.5.g ;.>.>.>.r r g g r r   & $.$.>.>.>.>.>.$.g s s s s s 0 0   & 8.*.*.g g ",
">.4.>.*.*.g r r 0 8 8 s r 0 7   & 7.7.7.7.;.$.7.*.7.5.4.8.*.;.$.>.r r g g g g   & $.$.>.>.>.s >.$.s s s s y s 0 0   & 8.8.g g g ",
"g >.>.*.g g g g 0 8 8 0 0 r 7   & 7.7.7.5.>.g *.7.7.g 8.;.y g g >.g y g g g y   & $.$.s g y s s s s 0 s s r s 0 0   & 8.4.4.>.>.",
"g *.*.g s g g g 0 0 r 0 0 0 0   & 7.7.7.>.>.;.5.7.;.$.;.g y ;.$.>.y g g g g s   & $.s s s s y s s 0 0 r r 0 0 0 r   & 8.4.4.>.*.",
"g *.r s g r g g 0 r 0 7 0 r 0   & 7.>.;.>.>.7.7.7.7.*.$.g ;.*.g ;.r s s g g g   & 0 0 0 0 0 0 0 0 0 0 0 0 0 0 0 0 # & 8.>.4.4.g ",
"g >.g r g r s 0 r 7 7 0 7 7 7   & 7.*.g ;.5.7.>.>.g s ;.g >.$.g r g r g g g r   & &                                 & 8.>.*.*.g ",
"g *.>.*.s g s 0 0 0 7 r 7 0 7   & 7.g $.>.7.5.>.>.5.r >.*.;.r g g $.r g g g r   & & & & & & & & & & & & & & & & & & & 8.8.*.*.g ",
"g >.*.g r s g s 7 7 7 7 7 7 7   & 7.g ;.5.7.7.>.>.>.y >.g r g g >.r g g g y r   0 >.>.>.;.r r 0 & & & & & & & & & & & 8.>.>.g *.",
"        X X                     & 5.5.*.g $.g >.>.>.;.g r s g s g y g g g r r   g 5.0.7.5.$.7.r   & & & & & & & & & &           ",
"& & & & & & & & & & & & & & + & & g g g g g *.g *.g $.g r g g g g g g g g r r   >.5.>.5.w.7.5.r   & ;.q.5.>.5.5.8.>.>.;.s r y   ",
"& >.4.7.8.8.8.$.s >.4.4.0 0 7 + & g g g g g >.g r r g s g g y g g g g y y r r   7.5.8.5.>.5.q.r   & 5.7.7.g q.*.5.7.7.7.4.0 s   ",
"& 4.8.8.8.8.4.4.4.4.4.4.g 4.s @ & g g g g s g g g s r r y y r y g g r r r r r   5.8.5.0.5.5.;.r   & 7.7.$.g 7.4.7.7.7.7.7.;.0   ",
"& 4.8.5.4.g $.g ;.g 4.4.>.4.7 o & g g *.0 r r y r r r r r r r r y y r r r r y   5.8.5.w.5.>.s r   & $.8.7.7.7.7.7.$.>.>.0 0 0   ",
"& 8.5.4.;.$.4.4.4.4.4.g 4.g 7   & &                                             5.5.5.4.5.g $.r   & 5.7.5.;.>.4.7.r 0 0 0 0 0   ",
"& 8.g 4.4.4.4.$.;.g g g g 7 r   & & y ;.;.;.;.$.y 5.5.5.5.5.5.*.;.;.8 8 $.r & & >.5.0.5.5.g s 8   + 0 0 s g 0 5.0 7 9 $ $ 7 9   ",
"& :.4.4.4.4.4.4.4.*.g 4.g 9 0   & & >.5.4.5.;.7.7.7.5.5.4.>.;.>.;.$.;.;.*.8   & >.5.7.7.$.g r #   &                             ",
"& 7 4.8 s *.7 7 *.$.7 7 7 r 7   & & 7.7.>.>.4.5.;.7.;.;.;.;.;.;.;.$.r ;.8 8   & >.5.;.>.g g 7 #   7.7.7.7.8.8.8.8.8.8.8.8.8.8.  ",
"& &                         X X & & 7.7.7.7.5.5.7.4.4.7.>.;.r g ;.;.>.;.8 8   & ;.5.;.5.g 7 7 #   7.7.4.4.7.7.7.7.4.*.8.4.4.g   ",
"& & & & & & & & & & & & & & & & & & 7.7.7.;.7.7.>.>.7.$.r y ;.*.;.$.>.y ;.8   & ;.5.;.5.7 0 7 #   7.4.7.w.w.7.7.7.>.4.4.4.>.g   ",
"& 8.7.>.>.8.>.8.4.*.4.g g 4.4.  & & 5.7.>.7.>.r r 5.4.g ;.;.;.;.;.r y 0 8 8   & ;.5.;.;.0 7 7 $   7.8.8.w.q.q.7.7.*.*.4.>.g r   ",
"& 8.4.8.4.>.>.>.>.>.4.>.*.g *.  & & r 4.7.7.7.7.y *.7.g ;.;.s ;.r ;.r 8 8 8   & >.$.g g *.7 8 r   7.>.8.>.q.q.7.7.4.4.g g g 0   ",
"& 8.7.8.7.7.8.8.4.g 4.4.8 8 r   & & r r r r r 9 8 r y r r 0 r r $.;.s r 8 0   & $.r 7 7 7 7 0 r   7.8.7.>.>.>.4.4.g g g g 0 r   ",
"& 8.4.8.7.7.>.*.*.*.g s 8 8 r   & & &             O o                         & r r 7 7 7 7 8 r   7.7.4.>.>.>.4.g s r g 0 0 r   ",
"& 4.8.7.7.4.g g >.4.>.>.g r r   & & & & & & & & & & & & & & & & & & & & & & & & &                 7.7.>.4.>.>.4.g s r s g 0 0   ",
"& 8.4.8.7.*.*.7.g 4.4.>.s g 0   & &.4.>.&.a f >.>.4.8.4.5.5.4.*.4.5.s s 0 4.8.4.g g g r 0 0 7   & 7.7.8.7.*.7.7.>.g r >.>.0 7   ",
"& 8.4.8.4.>.*.g r *.4.4.>.s r   & 4.8.5.4.8.8.8.8.8.8.4.>.8.7.s >.4.s >.>.>.8.5.>.y >.s 7 7 7   & 8.8.7.*.4.7.7.7.>.g >.>.g 7   ",
"& 7.4.*.*.*.4.r 8 r *.>.>.s s   & 4.8.7.8.4.4.>.s g >.>.>.>.>.>.4.>.>.7.5.>.;.g $.>.>.0 7 7 7   & 8.7.4.*.4.4.7.7.>.g g g g 7   ",
"& 7.4.s r *.r 4.g g >.0 r 0 0   & 4.8.8.8.4.g s >.>.8.g >.>.>.7.>.>.5.>.>.g >.;.*.>.$ 7 7 7 7   & 8.7.4.8.4.4.g *.s s g g 0 7   ",
"& 4.4.*.*.r *.0 r 0 r s r s r   & 8.8.8.8.8.;.8.>.s >.>.>.;.>.>.>.>.>.y $.>.0 $ 0 7 7 7 8 7 0   & 8.8.8.>.4.g g s g g s r 7 r   ",
"& 4.>.g g g g g s s s s g g g   & >.5.8.8.8.>.7 7 >.>.;.s 7 7 7 7 7 7 7 7 9 s s 7 7 s g 0 0 s   & 8.4.4.g >.4.g g g g g s s g   ",
": *.*.*.g g g g g g g g g g g : : >.8.7.>.g *.>.;.*.>.>.*.y 0 0 r s 0 0 9 7 g g 7 g g g g g g : : 8.*.*.g g g g g g g g g g g & ",
"c c c c c c c c c c c c c c c c c c c c c c c c B V c c c c c c c c c c c c c c c c c c c c c c c c c c c c c c c c c c c c c : "
};
