/* XPM */
static char *_45da15f45be484b8b5133358a213d7aKnuSzfpGJKNzp8Ta[] = {
/* columns rows colors chars-per-pixel */
"64 64 161 2 ",
"   c #000000",
".  c #080503",
"X  c #191208",
"o  c #2A251C",
"O  c #392D15",
"+  c #352D1C",
"@  c #3E2F1C",
"#  c #3F3018",
"$  c #202020",
"%  c #282522",
"&  c #2C2C2C",
"*  c #373124",
"=  c #333333",
"-  c #3A3836",
";  c #393938",
":  c #4C0000",
">  c #640000",
",  c #700000",
"<  c #7C0000",
"1  c #572711",
"2  c #403018",
"3  c #483818",
"4  c #533C1C",
"5  c #5A3F1F",
"6  c #772310",
"7  c #493928",
"8  c #513A21",
"9  c #5B3F26",
"0  c #403A37",
"q  c #453E3A",
"w  c #5E3F3F",
"e  c #635413",
"r  c #6A5B12",
"t  c #72660E",
"y  c #7C6D10",
"u  c #767214",
"i  c #4F4023",
"p  c #5C4020",
"a  c #4D433C",
"s  c #5A4934",
"d  c #54463C",
"f  c #6D4926",
"g  c #67462B",
"h  c #744C28",
"j  c #7A512B",
"k  c #644E32",
"l  c #60553E",
"z  c #73513A",
"x  c #000040",
"c  c #0C0A42",
"v  c #00004C",
"b  c #09064B",
"n  c #0C0A4A",
"m  c #110D43",
"M  c #110D4C",
"N  c #161144",
"B  c #1B1346",
"V  c #16114D",
"C  c #19124E",
"Z  c #050454",
"A  c #0C0A57",
"S  c #010059",
"D  c #161155",
"F  c #1C1350",
"G  c #18125F",
"H  c #000064",
"J  c #090660",
"K  c #04036A",
"L  c #08056B",
"P  c #0C0A6E",
"I  c #161166",
"U  c #000070",
"Y  c #080576",
"T  c #00007C",
"R  c #21166A",
"E  c #424242",
"W  c #4F4747",
"Q  c #4B4B4B",
"!  c #5B4D44",
"~  c #534E49",
"^  c #545454",
"/  c #595757",
"(  c #5C5C5B",
")  c #635945",
"_  c #615F5E",
"`  c #6E6656",
"'  c #646464",
"]  c #686665",
"[  c #6D6C6C",
"{  c #787265",
"}  c #717171",
"|  c #7A7674",
" . c #7C7C7C",
".. c #880000",
"X. c #980000",
"o. c #951007",
"O. c #A40000",
"+. c #AA0000",
"@. c #B10000",
"#. c #BC0000",
"$. c #BF3535",
"%. c #C60000",
"&. c #CD0000",
"*. c #D20000",
"=. c #9B4B01",
"-. c #AE5103",
";. c #B45400",
":. c #80502C",
">. c #855434",
",. c #885830",
"<. c #915C34",
"1. c #9B5F38",
"2. c #9C6038",
"3. c #A0643C",
"4. c #A9683F",
"5. c #E46C00",
"6. c #FC7800",
"7. c #8D5E40",
"8. c #8F6347",
"9. c #A86840",
"0. c #B06C42",
"q. c #B47044",
"w. c #BC7848",
"e. c #C17749",
"r. c #C87C4C",
"t. c #958909",
"y. c #9D9305",
"u. c #9C9C00",
"i. c #A29808",
"p. c #B4AB00",
"a. c #C3B605",
"s. c #F48521",
"d. c #FC8820",
"f. c #CCC400",
"g. c #E4D800",
"h. c #87837C",
"j. c #D08050",
"k. c #DC8854",
"l. c #E88C58",
"z. c #050480",
"x. c #080581",
"c. c #000088",
"v. c #070592",
"b. c #0A0791",
"n. c #000098",
"m. c #0000A4",
"M. c #0805A7",
"N. c #0000B0",
"B. c #0000BC",
"V. c #0000D4",
"C. c #0000FC",
"Z. c #2626ED",
"A. c #8A8885",
"S. c #8C8C8C",
"D. c #918F8C",
"F. c #949494",
"G. c #989898",
"H. c #B3AAAA",
"J. c #E38282",
"K. c #E48282",
"L. c #E3D6D6",
/* pixels */
"; U U U U U U U U U U U U U U U U U U U U U U U U U U U ; ; U U U U U U U U U U U U U ; ; U U U U U U U U U U U U ; U U U U U ; ",
"$ n.n.n.n.n.n.n.n.n.n.n.n.n.n.n.n.n.n.n.n.n.c.c.c.T U U   $ n.n.n.n.n.n.n.n.c.T T T T   $ n.n.n.n.n.n.n.n.T T H S   m.m.m.m.c.  ",
"$ n.n.n.T n.U n.n.c.U c.c.U c.c.c.U U n.T U U U U H S v   $ n.n.c.c.T n.n.c.T T T T v   $ n.N.m.N.m.N.N.N.N.N.c.U   m.m.T c.T   ",
"$ n.c.U T c.c.c.U U n.c.n.S c.c.S T U U c.c.U U H S S v   $ n.c.n.n.T c.c.U T U n.H v   $ n.m.N.N.n.N.B.m.N.n.c.U   n.n.m.c.v   ",
"$ n.T n.H c.H c.U U U c.T T U S T H c.S U H S S v v v S   $ n.c.T T c.c.U T U H v S v   $ n.N.m.n.B.N.m.n.c.T T H   T H U U v   ",
"$ n.T U n.v.c.Z L K K b.x.z.z.Y Y L J Z L K L S S Z b Z . % b.c.Y c.b.K S J J Y Z b b . % c.M.b.N.Z.N.c.M.c.x.S L . z.Y H S v   ",
"$ n.c.c.m.p.p.p.p.p.p.p.p.p.p.p.p.p.p.p.p.p.p.p.p.p.u p.p.p.p.p.p.p.p.& & p.p.p.p.p.p.p.p.p.p.p.p.p.p.p.p.p.p.p.p.p.u.-.v v v   ",
"$ n.n.c.n.p.d.d.d.d.d.d.d.d.d.d.d.d.d.d.d.d.d.d.d.s.& 6.6.6.6.6.6.6.6.& E & 6.6.6.6.6.6.6.6.5.5.5.5.5.5.5.5.5.5.5.;.;.4 v S v   ",
"$ n.c.U c.p.d.3 3 3 3 3 3 3 3 3 3 3 3 3 3 3 3 3 3 & & 3 3 3 3 3 3 3 & & ^ & * 3 3 3 3 3 p p p p p p p p p p p p p u.;.4         ",
"$ n.T T T p.d.3 ^ ^ ^ ^ ^ ^ ^ ^ ^ ^ ^ ^ ^ ^ ^ ^ ^ & ^ & ^ ^ ' ' ' ' & E ^ ^ & ' ' ' ' ' ' ' ' ' ' } } } } } } } } p.;.8 m.m.n.  ",
"$ c.U T n.p.d.3 ^ G.G.G.G.G.G.G.G.G.G.G.G.G.G.G.G.& ^ & S.G.G.G.G.G.& ^ ^ ^ & & G.G.G.G.G.G.G.G.G.G.G.G.G.G.G.G.G.p.;.8 c.m.T   ",
"$ c.T c.U p.d.3 ^ G.G.G.G.G.G.G.G.G.G.G.G.G.G.G.E Q ^ Q = Q Q Q Q = E ^ ^ ^ ( & F.G.G.G.G.G.G.G.G.G.G.G.G.G.G.G.G.p.;.8 T c.S   ",
"$ c.U c.U p.d.3 ^ G.G.G.G.G.G.G.G.G.G.G.G.G.G.G.& ^ ^ ^ & $ $ $ $ & ^ ^ ^ ^ ^ Q & G.G.G.G.G.G.G.G.G.G.G.G.G.G.G.G.p.;.8 c.H v   ",
"$ c.c.U U p.d.3 ^ G.G.G.G.G.G.G.G.G.G.G.G.G.G.G.& ^ E ^ = ; ; E ; ^ ^ ^ ; % ^ ^ & G.G.G.G.G.G.G.G.G.G.G.G.G.G.G.G.p.;.4 U S H   ",
"$ c.U c.S p.d.3 ^ G.G.G.G.G.G.G.G.G.G.G.G.G.G.F.a ; ; ^ ^ ^ ^ |  .^ ^ ^ Q ^ ^ ^ % $ G.G.G.G.G.G.G.G.G.G.G.G.G.G.G.p.;.4 S v v   ",
"$         p.d.3 ^ G.G.G.G.G.G.G.G.G.G.G.G.G.G.Q ; ; ^ ^ Q ^ ^ ^  . .( ^ ' } ^ Q & $ Q G.G.G.G.G.G.G.G.G.G.G.G.G.G.p.;.4         ",
"n.N.m.n.m.p.d.3 ^ G.G.G.G.G.G.G.G.G.G.G.G.G.G.q ; ^ ^ Q } | [ ^  . . . .Q ^ ^ Q & $ $ ' G.G.G.G.G.G.G.G.G.G.G.G.G.p.;.8 B.B.B.B.",
"N.m.n.c.n.p.d.3 ^ G.G.G.G.G.G.G.G.G.G.G.G.G.G.; Q ^ [  . . . .^ ^ ^  . . .Q ' Q Q $ $ Q G.G.G.G.G.G.G.G.G.G.G.G.G.p.;.8 B.V.N.B.",
"N.m.c.c.T p.d.3 ^ G.G.G.G.G.G.G.G.G.G.G.G.G.d ; ^ ^  . . . . .^  . . . . . . .; Q & $ & G.G.G.G.G.G.G.G.G.G.G.G.G.p.;.8 V.C.V.m.",
"m.n.c.m.m.p.d.3 ^ G.G.G.G.G.G.G.G.G.G.G.G.G.; ; }  . . . . .E Q [ | |  . . . .= ( Q $ & G.G.G.G.G.G.G.G.G.G.G.G.G.p.;.8 B.V.m.B.",
"n.T c.m.N.p.d.3 ' G.G.G.G.G.G.G.G.G.G.G.G.G.; ; ;  . . . .E +.E Q |  . . .^  .|  .Q & & G.G.G.G.G.G.G.G.G.G.G.G.G.p.;.8 B.m.n.m.",
"n.n.T c.m.p.d.3 ' G.G.G.G.G.G.G.G.G.G.G.G.G.; ; }  . . .E *.&.E (  . . .}  . . . .Q E Q G.G.G.G.G.G.G.G.G.G.G.G.G.p.;.8 B.m.B.n.",
"m.T U T c.p.d.3 ' G.G.G.G.G.G.G.G.} % $ $ $ / ; '  .E E &.@.*.W  . . . . . . .} ^ Q Q } G.G.G.G.G.G.G.G.G.G.G.G.G.f.;.@ m.N.m.n.",
"m.n.T c.U p.d.3 ' G.G.G.G.G.G.' $ $ $ & % $ ; ; ;  . . . .| Q  . . . . . . . .[ Q Q ; $ F.& G.G.G.G.G.G.G.G.G.G.G.f.;.@ m.n.c.N.",
"m.m.c.T m.p.6.3 ' G.G.G.G.G.G.E $ $ $ $ $ $ = ; ; E ; ;  . .[  . . . . . .| ^ ^ Q Q ; & $ ' G.G.G.G.G.G.G.G.G.G.G.f.;.@ B.m.B.B.",
"m.n.T U T p.6.3 ' G.G.G.G.G.G.G.$ $ $ $ % $ ; ; E ; ;  .(  . . . . . . .^ ^ ^ _ ' Q ; Q Q [ G.G.G.G.G.G.G.G.G.G.G.f.;.@ m.B.N.m.",
"n.c.U T n.p.6.3 ' G.G.G.G.G.G.G.G.$ $ $ $ = ; ; ' ; ^  . .|  . . . . .( ^ ^ ^ [ Q Q Q Q S.G.G.G.G.G.G.G.G.G.G.G.G.f.;.@ B.B.m.n.",
"m.c.m.c.c.p.6.3 ' G.G.G.G.G.G.G.G.% $ ; ; ; ; } ; ;  .;  . . .}  . . .' ] | Q Q / Q E G.G.G.G.G.G.G.G.G.G.G.G.G.G.f.;.@ B.B.m.m.",
"n.T T n.n.p.6.3 ' G.G.G.G.G.G.G.G.G.$ $ ; ; ; / ; | ^  . . . . . .^  .^ | / Q Q Q ; $ $ G.G.G.G.G.G.G.G.G.G.G.G.G.f.;.@ m.B.B.n.",
"n.c.T n.n.p.6.3 ' G.G.G.G.G.G.G.G.G.G.% % ;  .; ^ H. . . . . . .^  .^ ' ^ Q E ; ; ; ; $ $ $ G.G.G.G.G.G.G.G.G.G.G.g.;.@ B.N.m.m.",
"c.T c.T n.p.6.3 ' G.G.G.G.G.G.G.G.G.G.L.L.w J.K.L.L. . . . . .( / ^ ^ ^ / Q 0 ; ; ; $ $ $ G.G.G.G.G.G.G.G.G.G.G.G.g.;.@ B.m.c.n.",
"c.T T U T p.6.3 ' G.G.G.G.G.G.G.G.G.G.G.L.K.K.K.L.$ $ '  . .^ ^ ^ ^ ^ | Q a ; ; ; 9 $ / A.G.G.G.G.G.G.G.G.G.G.G.G.g.;.@ m.B.m.c.",
"c.T n.c.H p.6.3 ' G.G.G.G.G.G.G.G.G.G.G.G.K.K.K.E Q ; $ ; | [ | ^ ^ | ] Q ; ; 0 :.:.h f 3 3 S.G.G.G.G.G.G.G.G.G.G.g.;.@ m.B.T T ",
"c.n.c.T T p.6.3 ' G.G.G.G.G.G.G.G.G.G.G.G.K.K.G.G.S.r.$ | | | | d | ' Q ; - :.3.3.3.<.<.:.3 4 } S.G.G.G.G.G.G.G.G.g.;.@ B.T c.T ",
"U c.c.T U p.6.3 ' G.G.G.G.G.G.G.G.G.G.G.G.G.G.G.S.7 ; Q | | | ; | _ Q 4 s 3.q.q.q.q.q.q.q.2.2.3 4 } G.G.G.G.G.G.G.g.;.@ m.B.c.c.",
"U T T U H p.6.3 ' G.G.G.G.G.G.G.G.G.G.G.G.G.G.Q $ $ ; | | | ; 8.Q Q :.3.q.q.q.q.q.q.q.q.q.q.q.2.3 3  .G.G.G.G.G.G.g.;.@ m.c.c.T ",
"U T S H U p.6.3 ' G.G.G.G.G.G.G.G.G.G.G.G.S.3 1.$ & ; ! | ; 7.Q Q 2.q.q.q.q.9.2.:.2.2.q.q.q.q.q.2.p 3  .G.G.G.G.G.g.;.@ m.c.T T ",
"U c.U S U p.6.3 ' G.G.G.G.G.G.G.G.G.G.G.G.3 1.1.7 ; ; ; ; q Q Q 3.q.q.q.q.9.3.:.:.2.2.2.2.,.,.,.,.,.3 3 G.G.G.G.G.g.;.@ c.T c.T ",
"U T c.T H p.6.3 ' G.G.G.G.G.G.G.G.G.G.G.) 3 2.h j.% ; ; ; Q Q q.q.q.q.q.q.3.<.h :.2.2.,.2.2.2.,.,.,.,.3 G.G.G.G.G.g.;.@ c.c.c.T ",
"U c.T U S p.6.3 ' G.G.G.G.G.G.G.G.G.G.G.3 2.2.h >.$ 3.; Q ~ q.q.q.q.q.q.9.<.:.p p q.q.q.q.q.2.2.,.:.:.p G.G.G.G.G.g.;.@ c.c.U c.",
"          p.6.3 ' G.G.G.G.G.G.G.G.G.G.l 4 2.1.h 7 $ z Q ~ q.q.q.q.q.q.q.3.:.p p q.q.j.q.q.q.2.q.2.h h 3 G.G.G.G.G.g.;.@         ",
"$ $ $ $ $ p.6.3 ' G.G.G.G.G.G.G.G.G.G.3 2.2.<.p f g 3.3.q.q.q.q.q.q.q.9.9.:.p q.q.j.q.q.j.2.<.q.2.h p 3 G.G.G.G.G.g.;.@ H H H $ ",
"$ $ c.n.m.p.6.3 ' G.G.G.G.G.G.G.G.G.A.h 2.2.<.h h 3.3.w.w.r.r.q.q.q.q.2.:.p p q.j.q.q.j.q.2.<.q.,.h p 3 G.G.G.G.G.g.;.@ v U v $ ",
"$ $ n.N.N.p.6.3 ' G.G.G.G.G.G.G.G.G.3 2.2.<.<.h ,.3.w.w.r.r.w.w.w.h 2.,.p p 2.2.q.q.q.j.2.<.3.q.,.h 5 3 3 G.G.G.G.g.;.@ v v H $ ",
"$ $ n.N.m.p.6.p ' G.G.G.G.G.G.G.G.G.,.2.2.<.h h 3.3.w.w.r.w.w.w.h 2.,.,.p +.+.*.+.+.j.q.3.<.q.q.:.p 3 3 3 G.G.G.G.g.;.# $ $ $ $ ",
"$ $ N.N.N.p.6.p ' G.G.G.G.G.G.G.G.) 2.2.,.<.<.h 3.3.<.h 3 3 w.w.h ,.p p +.+.*.+.+.*.j.h 2.<.q.q.h p 3 3 3 G.G.G.G.g.;.@ m.m.n.$ ",
"$ $ N.n.m.p.6.p ' G.G.G.G.G.G.G.G.f 2.2.<.<.h ,.3.q.w.w.3 3 h h ,.p $.+.@.*.+.#.+.+.*.h <.2.q.q.h p 3 3 3 { G.G.G.g.;.@ N.n.T   ",
"$ $ N.N.m.p.5.p } G.G.G.G.G.G.G.D.<.2.4.9.<.h 3.3.w.w.r.:.9.,.,.p < +.@.*.+.%.+.+.+.+.X.X.<.q.q.h 3 3 3 3 3 G.G.G.g.;.@ c.c.T   ",
"$ $ N.N.c.p.5.p } G.G.G.G.G.G.G.3 1.2.9.9.h h 3.q.w.w.r.<.9.,.,.< O.&.&.+.*.+.+.+.+.+.X.....<.,.h 3 3 3 3 3 G.G.G.g.;.@ H T U   ",
"$ $ N.N.N.p.5.p } G.G.G.G.G.G.G.3 2.4.<.<.h :.3.q.w.w.w.9.,.p 2.X.X.&.+.*.+.+.+.+.+.X.....< , h 3 p 4 3 3 3 G.G.G.g.;.@ U U H   ",
"$ $ N.n.N.p.5.p } G.G.G.G.G.G.l 3 2.<.9.<.3.,.2.q.w.w.w.,.p l.w.r.:.6 %.+.+.+.+.+.X.....< , > h 3 p 3 3 3 3 G.G.G.g.;.@ c.S v   ",
"$ $ N.m.c.p.5.p } G.G.G.G.G.G.3 2.2.4.1.h q.2.2.,.,.,.w.l.r.3.l.r.r.:.o.+.+.+.+.X.....< , > > : p p 3 3 3 3 h.G.G.g.;.@ c.S v   ",
"$ $ N.n.N.p.5.p } G.G.G.G.G.G.3 2.0.2.3.2.q.2.2.2.2.2.l.l.l.3.3.l.w.q.q.4 4 X.X.....< , > > : p 3 3 3 3 3 ` G.G.G.g.;.@ U S v   ",
"$ $ N.m.N.p.5.p } G.G.G.G.G.G.G.k 2.2.2.2.2.2.2.2.r.r.l.l.r.l.w.l.l.q.2.2.4 4 ....< , > > : p p 3 3 3 8 3 s G.G.G.g.;.@ H S v   ",
"$ $ N.n.N.p.5.p } G.G.G.G.G.G.G.:.2.2.2.2.k.4.2.q.w.l.l.w.w.r.l.l.l.r.2.2.h 4 ..< , > > : p p f 3 3 3 i 3 3 G.G.G.g.;.@ S v v   ",
"$ $ n.N.m.p.5.p } G.G.G.G.G.G.3 2.2.2.2.2.2.2.2.j.r.e.j.w.9.2.2.r.r.r.2.,.f 4 4 , > : p p p 3 3 3 3 3 3 3 3 G.G.G.g.;.@ S H v   ",
"$ $ N.n.N.p.5.p } G.G.G.G.G.3 2.2.2.2.2.2.2.2.2.2.2.3.j.j.j.j.j.j.j.j.j.q.j j + 1 3 3 3 3 3 3 3 3 3 3 3 3 3 G.G.G.g.;.@ x S v   ",
"$ $ N.n.N.p.5.p } G.G.G.G.3 l h 3 3 3 3 3 3 3 3 3 3 3 3 3 3 3 3 3 3 3 3 3 3 3 3 3 3 3 3 3 3 3 3 3 3 3 3 3 3 G.G.G.g.;.@ x x v   ",
"$ $ m.n.T p.5.5.p.p.p.p.p.t 3 3 3 3 e t.y.t.r e i.p.p.f.f.f.f.f.y a.g.g.g.g.g.g.g.g.g.g.g.g.g.g.g.g.a.g.g.g.g.g.g.g.;.@ x x v   ",
"$ $ m.n.H p.;.;.;.;.;.;.;.;.;.;.;.;.;.;.;.;.;.;.;.;.;.;.;.;.;.;.;.;.;.;.;.;.;.;.;.;.;.;.;.;.;.;.;.;.;.;.;.;.;.;.;.;.;.@ S S v   ",
"$ $ n.n.T =.4 4 4 4 4 4 2 2 2 2 2 2 2 2 2 2 2 2 2 2 2 2 2 2 2 2 2 2 2 2 2 2 2 O O O O 2 2 2 2 2 2 2 2 2 2 2 2 2 2 2 2 @ v v v   ",
"$ $ n.c.U G R C C n n C M m m m N m m m m m B B N X o A A C F F F M M c c B m m m M m V o o P I D G D V M m m m m N N c S S S $ ",
"; ; U U U U U U U U U U U U U U U U U U U U U U U ; ; U U U U U U U U U U U U U U U U U ; ; U U U U U U U U U U U U U U U U U & ",
"^ ^ ^ ^ ^ ^ ^ ^ ^ ^ ^ ^ ^ ^ ^ ^ ^ ^ ^ ^ ^ ^ ^ ^ ^ ^ ^ ^ ^ ^ ^ ^ ^ ^ ^ ^ ^ ^ ^ ^ ^ ^ ^ ^ ^ ^ ^ ^ ^ ^ ^ ^ ^ ^ ^ ^ ^ ^ ^ ^ ^ ^ ^ ^ "
};
