/* XPM */
static char *_10b014c263c4d0c8d0dfb93628e96cdFweFNNwAJhByN4of[] = {
/* columns rows colors chars-per-pixel */
"64 64 178 2 ",
"   c #000000",
".  c #1B150A",
"X  c #2E2618",
"o  c #342A16",
"O  c #1B152B",
"+  c #03023E",
"@  c #1B1531",
"#  c #1B153C",
"$  c #033E3E",
"%  c #0A3B3B",
"&  c #113737",
"*  c #202020",
"=  c #2F2525",
"-  c #2F252B",
";  c #2C2C2C",
":  c #332F2F",
">  c #2F2530",
",  c #293131",
"<  c #333434",
"1  c #393939",
"2  c #570000",
"3  c #580000",
"4  c #441515",
"5  c #4F1010",
"6  c #660000",
"7  c #700000",
"8  c #7C0000",
"9  c #771A1A",
"0  c #543C1C",
"q  c #4B2323",
"w  c #6E3B3B",
"e  c #4F4C08",
"r  c #585400",
"t  c #706C00",
"y  c #7D7D04",
"u  c #5B4527",
"i  c #6C4824",
"p  c #744C28",
"a  c #000040",
"s  c #1B1544",
"d  c #1B154A",
"f  c #040356",
"g  c #000058",
"h  c #120E52",
"j  c #1B1550",
"k  c #1B155D",
"l  c #000064",
"z  c #05036D",
"x  c #1B1569",
"c  c #000070",
"v  c #00007C",
"b  c #004040",
"n  c #044A4A",
"m  c #0B4A4A",
"M  c #144B4B",
"N  c #035555",
"B  c #005858",
"V  c #195A5A",
"C  c #2A4141",
"Z  c #325858",
"A  c #036666",
"S  c #016C6C",
"D  c #166767",
"F  c #007070",
"G  c #047B7B",
"H  c #1C7B7B",
"J  c #386D6D",
"K  c #257676",
"L  c #207979",
"P  c #454545",
"I  c #4B4B4B",
"U  c #445A5A",
"Y  c #545454",
"T  c #5C5C5C",
"R  c #635050",
"E  c #694660",
"W  c #486D6D",
"Q  c #527B7B",
"!  c #616161",
"~  c #6D6D6D",
"^  c #746262",
"/  c #717171",
"(  c #7C7C7C",
")  c #880000",
"_  c #970707",
"`  c #980000",
"'  c #A60D0D",
"]  c #B00000",
"[  c #BC0000",
"{  c #C70404",
"}  c #C80101",
"|  c #D40000",
" . c #D21616",
".. c #E00000",
"X. c #FC0000",
"o. c #DB2222",
"O. c #C73C3C",
"+. c #FC2020",
"@. c #E83939",
"#. c #9C4C00",
"$. c #824016",
"%. c #B45400",
"&. c #E46C00",
"*. c #FC7800",
"=. c #EC4646",
"-. c #FC4040",
";. c #FC4F4F",
":. c #F75555",
">. c #FC5C5C",
",. c #F26161",
"<. c #FC7C7C",
"1. c #848400",
"2. c #9C9C00",
"3. c #B4AC00",
"4. c #AEA735",
"5. c #CCC400",
"6. c #E4D800",
"7. c #EBE405",
"8. c #EBE40B",
"9. c #FCF400",
"0. c #EBE421",
"q. c #FCF420",
"w. c #BABA77",
"e. c #D59053",
"r. c #FC9840",
"t. c #FCA85C",
"y. c #FCF85C",
"u. c #FCFC7C",
"i. c #030283",
"p. c #000088",
"a. c #040293",
"s. c #010199",
"d. c #0000A4",
"f. c #0503AA",
"g. c #0000B0",
"h. c #0000BC",
"j. c #0403C0",
"k. c #0000C8",
"l. c #008484",
"z. c #138484",
"x. c #009C9C",
"c. c #089D9D",
"v. c #339191",
"b. c #00B4B4",
"n. c #4F9292",
"m. c #638888",
"M. c #65AEAE",
"N. c #6BACAC",
"B. c #76A3A3",
"V. c #6EB0B0",
"C. c #00CCCC",
"Z. c #00E4E4",
"A. c #00FCFC",
"S. c #20FCFC",
"D. c #848484",
"F. c #8C8C8C",
"G. c #829595",
"H. c #949494",
"J. c #989898",
"K. c #A4A4A4",
"L. c #AAAAAA",
"P. c #B4B4B4",
"I. c #BCBCBC",
"U. c #FC9C9C",
"Y. c #EBEB9E",
"T. c #FCFC9C",
"R. c #FCFCB8",
"E. c #C1C1C1",
"W. c #C6CBCB",
"Q. c #CACACA",
"!. c #D5D5D5",
"~. c #DBDBDB",
"^. c #E9DED4",
"/. c #E4E3E3",
"(. c #EAE7E7",
"). c #ECECEC",
"_. c #F6F6F6",
"`. c gray99",
/* pixels */
"1 c v v v v v v v v v v v v v v v v v v v c 1 1 p.p.p.p.p.p.p.p.p.p.p.p.p.p.p.p.p.p.p.p.p.p.p.p.p.p.p.p.1 1 c v v v v v v v c ; ",
"* d.d.d.d.d.d.d.d.d.d.d.d.d.d.d.d.d.d.d.d.d.* * h.h.h.h.h.h.h.h.h.h.h.h.h.h.h.h.h.h.h.h.h.h.h.h.h.h.h.h.* * g.g.g.g.g.g.g.g.g.* ",
"  d.d.d.p.d.v d.d.s.v s.s.v s.s.v d.v c c g   * h.d.h.g.v d.h.s.c c s.p.d.d.p.c p.d.h.d.p.s.d.h.h.d.s.c   * g.h.d.s.d.g.g.s.v   ",
"  d.s.v p.s.s.s.v v d.s.d.l s.s.v c v v c l   * h.h.d.s.s.s.c s.g c g g v d.d.l c c l c c g c p.p.c l c   * g.g.d.d.v s.d.d.g   ",
"  d.p.d.c k.k.s.v v v s.p.p.v l g v c g g l   *                                                           * g.d.g.h.h.g.d.v v   ",
"  d.p.v d.k.j.l v v v s.a.a.a.i.z z v f f +   * s.s.s.s.s.s.s.s.s.s.s.s.s.s.s.s.s.s.s.* * * * * * * * * * * f.g.s.f.s.v v l g   ",
"  d.s.s.g.^.T.9.9.9.9.9.9.9.9.9.9.9.9.9.9.9.9.9.9.9.9.9.9.9.9.9.9.9.9.9.9.9.9.9.9.9.9.9.9.9.9.9.9.9.9.9.9.9.9.9.9.9.t.$.p.l l   ",
"  d.d.s.d.Y.9.t.t.t.t.t.t.t.t.t.t.t.t.t.t.t.t.t.t.t.t.t.t.t.t.t.t.t.t.t.t.t.t.t.t.t.t.t.t.t.t.t.t.t.t.t.t.t.t.t.t.t.*.= p.p.l   ",
"  d.s.v s.7.t.#.#.#.#.#.#.#.#.#.#.#.#.#.#.#.#.#.#.#.#.#.#.#.#.#.#.#.#.#.#.#.#.#.#.#.#.#.#.#.#.#.#.#.#.#.#.#.#.#.#.*.&.- p.p.a   ",
"  d.p.p.p.7.t.#.; ; ; ; ; ; ; ; ; ; ; ; ; ; ; ; ; ; ; ; ; ; ; ; ; ; ; ; ; ; ; ; ; ; ; ; ; ; ; ; ; ; ; ; ; ; ; ; ; t.&.- s.g a   ",
"  s.v p.d.7.t.#.; B B F l.l.l.x.b.b.b.x.l.F F F F F M F F F F F F F : S F F F F F F F F F F F l.l.l.l.l.F B b b b t.&.- s.g a   ",
"  s.p.s.v 7.t.#.; B l.x.C.b.C.C.C.C.Z.S.U.<.<.<.>.{ 6 ; 9 } -.-.-.-.;.' ; 3 { >.>.>.>.<.<.<.U.A.C.C.x.l.F B B B F t.&.= v v a   ",
"  s.v s.v 7.t.#.; l.x.C.b.C.C.C.S.U.<.>.>.>.>.>.>.} ; / q } >.X.-.-.} 9 / q } >.-.-.>.>.>.>.>.<.U.A.x.l.l.F F F x.t.&.= v v a   ",
"  s.s.v v 7.t.#.; b.C.b.C.b.b.Z.>.<.<.<.>.<.>.>.=.[ ! / / _ ;.;.X.o.} / / ! 8 } -.>.>.>.<.>.<.<.<.>.b.x.l.l.x.x.C.t.&.X g g a   ",
"  s.v s.l 7.t.#.; b.Z.C.b.b.x.>.<.<.<.<.<.>.<.{ } } / / / w :.>.-.} w / / / ' { } -.>.<.>.<.<.<.<.<.>.b.b.b.b.Z.Z.t.&.X         ",
"          7.t.#.; b.A.Z.C.b.>.+.>.<.<.<.>.=. .} } R / F./ / ; ; ; ; / / F./ R { } @.>.} <.>.<.<.<.>.+.>.Z.Z.Z.Z.S.t.&.o * * * * ",
"d.h.g.d.g.7.t.#.; x.C.A.A.b.8 ..X.>.<.} } } } =.` / / / L./ D.J.J.D./ L./ / / 6 ` ] } } } X.>.<.>.X...8 Z.Z.Z.A.C.t.&.> h.h.h.h.",
"h.g.d.s.d.8.t.#.; x.b.A.Z.Z.3 8 ..X.X.} } b , } 4 I / W.).).).).).).).).W./ I ; b b b Y Y } ] X.X...8 3 Z.A.A.A.S.t.&.> h.d.g.h.",
"h.g.s.s.p.7.t.#.; l.C.Z.A.l.8 3 ` ] 8 ] Y b n b ; / E.).).~.).).).).~.).).E./ ; b L L b M Y ] 8 ] ` 3 8 A.A.S.A.Z.t.&.> d.g.g.g.",
"g.d.s.g.g.7.t.#.; l.Z.A.b.>.] ] 3 8 3 $ G L L l.1 / E.).).).).).).).).).).E./ 1 m L L L J Y 3 3 8 3 ] ] >.S.S.Z.Z.t.&.> h.h.g.g.",
"d.p.s.g.h.8.t.#.; F Z.x.>.>.>...] 3 3 A n L L D ! / E.E.Q.).).).).).).Q.E.E./ ! n L L L z.K 3 3 3 ] ..>.>.>.Z.Z.Z.t.&.> h.g.g.g.",
"d.d.p.s.g.8.t.#.; B x.>.<.<.>.>...` Y l.l.L L V I / P.(.).P E.E.E.E.P ).(.P./ I D L L L L Y Y 8 ` ..>.>.<.<.>.x.C.t.&.> h.d.d.s.",
"g.p.v p.s.7.t.#.; B X.>.>.<.<.>.>.N.v.l.L H n ; ; Y ).).F.; I.E.E.I.; F.).).Y ; , b L L l.v.N.Y Y >.>.<.<.>.>.X.b.t.&.> d.d.s.s.",
"g.d.p.s.v 7.t.#.; B 8 X.>.>.<.<.l.V.l.l.z.S b ; D.; ).).).!./.; ; /.!.).).).; D.; b l.G l.l.V.G.Y b <.<.>.>.X.8 x.t.&.> g.s.s.s.",
"g.g.s.p.g.7.t.#.; B 8 ..X.>.,.z.V.V.l.l.l.b Z 1 D./ / (.).).E.E.E.E.).).(./ / D.1 b G l.l.l.V.V.v.c.b >.>.X...8 x.t.&.> h.s.s.s.",
"g.d.p.v p.8.t.#.; B 8 ] ..X.B.N.n.l.l.V.W b ; I ( / ; / I.).1 ; ; 1 ).I./ ; / ( I , b J N.l.l.n.N.M.Y +.X...] 8 b.t.&.> g.h.d.d.",
"d.s.v p.d.8.t.#.; F B ` ] ..B.V.l.l.l.m b b D.; ( / ( ; ).E.( <.<.( E.~.; ( / ( ; D.b b b l.l.l.V.N.3 8 ..] ` l.C.t.&.> h.h.d.d.",
"g.s.g.s.s.7.t.#.; l.x.B ` ] 7 ^ l.l.; ; ; C ; ; L./ / F.H.J.E.<.<.E.J.H.F./ / L.; ; ; ; ; ; l.l.m.3 8 7 ] ` l.C.Z.t.&.> h.h.g.g.",
"d.p.p.d.d.7.t.#.; x.Z.x.B ` 3 $ n V ; ).).).< ; ; ( / ).).; ; Q.Q.; ; ).)./ D.; ; < ).).).; C n $ 3 7 3 ` l.C.Z.Z.t.&.> d.d.h.g.",
"d.s.p.d.d.7.t.#.; b.A.Z.l.3 3 3 b ; ).)./.( / < ; ; T K.).E.; ; ; ; E.).K.T ; ; < / ( /.).).; b 3 3 3 3 3 C.Z.Z.Z.t.&.> d.d.g.g.",
"s.p.s.p.d.7.t.#.; b.A.A.Z...] ` l.; ).).).J./ / ; ; ; / ).)./ / / / ).).( ; ; ; / / J.).).).; b 4 ] ] ....C.Z.C.C.t.&.> h.s.s.v ",
"s.p.p.v p.7.t.#.; x.A.A.A.-...] ; ; /.E.J.( / J.; T ; ~ F.L.( / / / K.H.~ ; T ; J./ D.J.E./.; b 4 ] ....-.b.C.b.b.t.&.> p.p.s.s.",
"s.p.d.s.c 7.t.#.; l.A.A.>.-.....; ; J.J.J.J.F./ ~ ; ( F.).K.J./ / Y K.).F.( ; ~ / F.J.J.J.J.; b 4 ......-.>.b.b.C.t.&.> p.p.v v ",
"s.d.s.p.p.7.t.#.; F Z.>.<.>.-. .b ; J.J.J.J.J./ L.; ( ( ).).).I I ).).).( ( ; L./ J.J.J.J.J., b U 8 ..-.>.<.>.C.C.t.&.> h.v v v ",
"v s.s.p.v 7.t.#.; F l...>.<.>.8 b < ; J.J.D.J.F./ / % P.).).).; ; ).).).P.Y / / F.J.D.J.J.; b b b Z 8 >.<.>...C.C.t.&.> d.d.s.s.",
"v p.p.v c 7.t.#.; x.x.] X.>.V b b , ; ; J.J.J.J./ / ; ).).).).; ; ).).).).; / / J.J.J.J.; ; b B F F U 8 >.X.] C.C.t.&.> d.d.s.p.",
"v p.l c v 7.t.#.; b.b.8 ` X.W J N A b b ; J.J.H.D./ ; H.).).).* * ).).).H.; / D.H.J.J.; Q b b F S F 8 8 X.` 8 b.C.t.&.> s.d.d.v ",
"v s.v l v 7.t.#.; b.C.B 7 ` & 8 F F N b n.< J.D./ / ; ( !.Q.).Y Y ).Q.!.( ; / / D.J.1 V b S F F 3 3 8 8 ` 7 F C.b.t.&.> s.p.p.v ",
"v p.s.p.c 7.t.#.; x.C.x.B 3 3 3 b F S F S Q m.J.J./ P J.).!.).~ ~ ).!.).J.P / J.J.~ Q b b F F B 8 3 3 3 3 F x.b.x.t.&.> h.p.p.v ",
"v s.p.v l 7.t.#.; l.Z.C.x.l.B b $ F A A F J 1 L.L./ ).( ).J.).F.F.).J.).( )./ L.L.1 b b F F S $ ) 8 B F l.x.l.x.x.t.&.> s.s.v p.",
"          7.t.#.; F b.Z.>.-.8 8 1 & F F F F L.L.L./ ).( Q.( I.D.D.I.( Q.( )./ L.L.K.b F F B & ] 8 B 8 8 -.>.x.l.l.t.&.X         ",
"* * * * * 7.t.#.; F x.>.<.>.] ] 8 8 F F F D L.L./ H./ 5.5.5.5.5.5.5.5.5.5./ H./ L.W n F N & ] ] 8 8 ] ] >.<.>.x.F t.&.= s.p.p.  ",
"* s.d.g.h.8.t.#.; B >.-.>.<.>.8 8 8 F q b 6 T T / / w.R.R.R.R.R.T.T.u.u.q.4./ / T M S S = ) ] 3 8 8 8 >.<.>.-.>.l.t.&.- s.v v   ",
"* d.h.h.h.8.t.#.; B | ..-.-.8 8 3 3 8 3 5 2 Y e.0.u.R.T.y.y.E._.Q.).E.5.3.2.2.y e p b b 3 8 3 8 3 3 8 8 -.-...| F t.&.- v c c   ",
"* d.h.g.g.8.t.#.; b 8 ] ....8 b B b 3 3 8 3 Y b *.5.3.y.3.(._._._._._./.0 #.0 r 0 b B F 3 8 3 3 b b b 8 ....] 8 F t.&.- c v g   ",
"* h.h.h.g.8.t.#.; b B 8 8 ] ] 8 b B b 3 3 Y b Y *.q.3.R.E._._._._.)._.E.E.1.0 r 0 B l.F B 3 3 b b b 8 ] ] 8 8 b F t.&.= v c g   ",
"* h.d.g.d.8.t.#.; B l.B B 3 3 3 8 8 8 8 b Y Y b *.q.3.R.).* _._._.).).* E.1.0 r 0 F x.l.F B 8 8 8 8 3 3 3 b B l.C.t.&.= c g l   ",
"* h.h.g.s.7.t.#.; B b.b.l.F F B 3 3 3 3 3 b b Y *.q.3.R.E.).).).* ).(.~.E.1.0 r 0 B l.F b 3 3 3 3 3 b B B F F l.C.t.&.o * * *   ",
"* h.h.s.d.8.t.#.; F b.<.>.[ 8 F B B 3 ) 8 3 b b *.q.3.R./.E.E.(.).).E.E.E.1.0 r 0 b B b 3 8 ) 3 b b b 8 [ >.F F l.t.&.> h.h.h.  ",
"* h.h.h.h.7.t.#.; F <.<.>.....[ 8 8 8 ` ) 8 3 b *.q.3.R.E.E.* * * * * E.E.1.0 r 0 B B 3 8 ) ` 8 8 8 [ ....>.>.x.F t.&.> d.d.v   ",
"* h.d.h.s.7.t.#.; F >.>.<.>...8 8 8 ] ] ` ) 3 b *.q.3.R.3.E.(.* O.O.* E.u 1.0 r 0 B B 3 ) ` ] ] 8 8 8 ..>.<.>.>.x.t.&.- d.s.v   ",
"* h.g.s.s.8.t.#.; B [ ..-.<.8 b b 8 8 ] ] 8 3 b *.q.3.R.3.u.E.^.O.O.E.t 0 1.0 r 0 B B 3 8 ] ] 8 8 Y Y 8 <.-...[ x.t.&.- s.v l   ",
"* h.d.h.d.8.t.#.; b F [ ] ..3 ` b b b 8 8 3 b *.r.u.R.`.T.`.u.q.q.6.5.3.1.2.i i r 0 b b 3 8 8 F F Y ` 3 ..] [ x.l.t.&.= v v g   ",
"* h.g.h.g.8.t.#.; B x.F [ 3 3 3 3 3 b F F F F %.t r *.#.#.r.#.#.#.#.#.0 p p p p 0 0 b B F l.l.b 3 3 3 3 3 [ x.l.l.t.&.= v g l   ",
"* h.d.h.g.8.t.#.; B l.x.B B 8 ] ] ` 3 F l.l.*.r.u.u.`.R.`.`.u.u.q.q.6.5.3.1.2.i i r 0 B F F B 3 ` ] ] 8 F F l.l.F t.&.= g g l   ",
"* d.h.g.g.8.t.#.; B B b 8 8 8 8 8 ] 8 F l.x.%.t r *.#.#.r.*.#.#.#.#.#.0 0 p p p p 0 0 b B B B 8 ] 8 8 8 8 8 F F F t.&.= v g g   ",
"* h.d.h.g.7.t.#.; b b b b b b 1 8 8 b B F *.r.u.u.`.R.R.`.`.u.u.q.q.6.5.3.3.1.1.i i r 0 b b b b 8 8 l.l.l.F F F F t.&.- s.g a   ",
"* h.d.h.d.7.t.#.; b b b b b b b b b B b B %.t *.*.#.#.r.*.*.#.#.#.#.#.0 0 0 p p p i 0 0 b b b b B F l.x.l.F F F F t.&.- s.v a   ",
"* g.d.p.p.7.t.*.t.t.t.t.t.t.t.t.t.t.t.t.t.t.t.t.t.t.t.t.t.t.t.t.t.t.t.t.t.t.t.t.t.t.t.t.t.t.t.t.t.t.t.t.t.t.t.t.t.t.&.= v v a   ",
"* g.d.c l 7.t.&.&.&.&.&.&.&.&.&.&.&.&.&.&.&.&.&.&.&.&.&.&.&.&.&.&.&.&.&.&.&.&.&.&.&.&.&.&.&.&.&.&.&.&.&.&.&.&.&.&.&.&.= v g a   ",
"* d.d.p.p.E j # # # # s # s # . X x k j s # # . X k k x x k d k # # # # # # O O s s # O @ O # . X x x x k k d d s d d h l a l   ",
"* d.s.v v v v v c c c c v v v * * d.p.v v v v * * d.d.s.d.s.v v v v v v c l g g v v v v g g c * * h.d.d.v s.d.v v v v v c c v   ",
"1 p.p.p.v v v v v v v v v v v 1 1 p.p.v v v v 1 1 d.k.p.p.p.p.p.v v v v v v v v v v v v v v v 1 1 h.p.p.v v v v v v v v v v v * ",
"Y Y Y Y Y Y Y Y Y Y Y Y Y Y Y Y Y Y Y Y Y Y Y Y Y Y Y Y Y Y Y Y Y Y Y Y Y Y Y Y Y Y Y Y Y Y Y Y Y Y Y Y Y Y Y Y Y Y Y Y Y Y Y 1 "
};
