/* XPM */
static char *_d178bb97b2a43cfeef77d5427bafdefi1Sp09ZkyQ4u5As2[] = {
/* columns rows colors chars-per-pixel */
"64 64 134 2 ",
"   c black",
".  c #080202",
"X  c #150505",
"o  c #202020",
"O  c #2C2121",
"+  c #2C2C2C",
"@  c #343131",
"#  c #393636",
"$  c gray22",
"%  c #541616",
"&  c #7F1E1E",
"*  c #5F182F",
"=  c #5F1836",
"-  c #6F1A25",
";  c #6E1A2A",
":  c #6D1A31",
">  c #622424",
",  c #7D212E",
"<  c #7B2033",
"1  c #000040",
"2  c #00004F",
"3  c #08024D",
"4  c #000056",
"5  c #00005F",
"6  c #0A035D",
"7  c #171656",
"8  c #2F0B52",
"9  c #262656",
"0  c #000064",
"q  c #0D0463",
"w  c #000068",
"e  c #000070",
"r  c #000079",
"t  c #10047E",
"y  c #1A077D",
"u  c #290B6D",
"i  c #26266B",
"p  c #474342",
"a  c #5D5353",
"s  c #5A5857",
"d  c #545458",
"f  c #5A5858",
"g  c #615E5E",
"h  c #785252",
"j  c #535260",
"k  c #656261",
"l  c #6C6967",
"z  c #6E6B69",
"x  c #74716F",
"c  c #7A7776",
"v  c #7B7876",
"b  c #831F1F",
"n  c #871F20",
"m  c #842222",
"M  c #8A2424",
"N  c #952325",
"B  c #9C2526",
"V  c #A22427",
"C  c #A72628",
"Z  c #A52828",
"A  c #AC2B2B",
"S  c #B32C2C",
"D  c #BA2E2E",
"F  c #AA2A32",
"G  c #A4293A",
"H  c #B32E30",
"J  c #BE2F32",
"K  c #BF3033",
"L  c #C1292F",
"P  c #CB2731",
"I  c #C72F35",
"U  c #CE2933",
"Y  c #D12C36",
"T  c #D52F38",
"R  c #C33032",
"E  c #CB3232",
"W  c #C93338",
"Q  c #D3333B",
"!  c #DA343D",
"~  c #E7393A",
"^  c #EA3B3B",
"/  c #96254F",
"(  c #DC3640",
")  c #DD3943",
"_  c #E13B45",
"`  c #84817F",
"'  c navy",
"]  c #080287",
"[  c #00008C",
"{  c #17168C",
"}  c #000091",
"|  c #0D0495",
" . c #00009E",
".. c #150596",
"X. c #1A0796",
"o. c #2F0B89",
"O. c #310D86",
"+. c #290B97",
"@. c #310D91",
"#. c #222095",
"$. c #0000A1",
"%. c #0A03A6",
"&. c #0E03AD",
"*. c #0000B1",
"=. c #0000B8",
"-. c #0C03BB",
";. c #1004B3",
":. c #2D2CA0",
">. c #2D2CBF",
",. c #0200C6",
"<. c #0802C4",
"1. c #0000CB",
"2. c #0000D7",
"3. c #0000DA",
"4. c #0000E6",
"5. c blue",
"6. c #2024FF",
"7. c #4140FE",
"8. c #95908F",
"9. c #9A9796",
"0. c #9E9B9A",
"q. c #A4A09F",
"w. c #A49FA1",
"e. c #AAA6A4",
"r. c #B2AFAE",
"t. c #B5B1AF",
"y. c #BCB8B6",
"u. c #C3BDBC",
"i. c #CCBEB8",
"p. c #FCAAAA",
"a. c #CEC0BB",
"s. c #D3C3BD",
"d. c #CBC5C3",
"f. c #D4CDCA",
/* pixels */
"$ [ [ [ [ [ [ [ [ [ [ [ [ [ [ [ [ [ [ [ [ [ [ [ [ [ [ [ $ $ [ [ [ [ [ [ [ [ [ [ [ [ [ $ $ ' ' ' ' ' ' ' ' ' ' ' ' $ [ [ [ [ [ $ ",
"o 1.1.1.1.1.1.1.1.1.1.1.1.1.,.,.,.,.1.1.1.1.*.*.*. .[ [   o 1.1.1.1.1.1.,.1.*. . . . .  o =.=.=.=.=.=.=.=.} } e 5   1.1.1.1.*.  ",
"M M -.1. .1.[ 1.1.*.[ *.*.[ *.*.*.[ [ 1. .[ [ [ [ r w 4   o 1.1.*.*. .1.,.*. . . . .4   o =.1.1.1.1.1.1.1.1.2.$.'   1.1. .%.M M ",
"M M M M | *.*.*.[ [ 1.*.1.w *.*.w  .[ [ *.*.[ [ r w w s 8.o 1.*.1.1. .8.s [  .[ 1.r 4   o =.1.1.1.=.1.2.1.1.=.$.'   1.-.M M M M ",
"M S M M M M r *.[ [ [ *. . .[ w  .r *.w [ r w w 4 4 4 f.f.# 1.*. . .#.f.f. .[ r 4 w 4   o =.1.1.=.2.1.1.=.$.} } e   M M M M S M ",
"M H _ M S A M S M M , ,.*.*.*. . .[ r w [ [ [ r r w 9 f.f.f.,.,. .1.f.f.f.i r  .w 4 4   o =.1.=.2.6.2.=.1.< M M S M A S M _ H M ",
"M S ) _ _ D S S S S M M M %.*.r  .4 [ w [ [ [ [ r 4 k f.f.f.w.1.1.w.f.f.f.k  . .r w 4   o =.1.1.=.1.<.M M M S S S S D _ _ ) S M ",
"M M L _ _ _ Q ~ D _ D S B N <  .[ r r r w [ [ r w 7 z 9.t.f.f.>.:.f.f.t.9.z { [ w 4 4   o =.1.1.1.< N B S H _ D ~ Q _ _ _ L M M ",
"> M N U _ _ _ _ E W _ _ _ P U P P A M M m r r r w f f.f.e.d.f.f.f.f.d.e.f.f.f r [ 4 w m M M A P P U P _ _ _ W E _ _ _ _ U N M % ",
"o @.M S U _ ) ( _ T S K _ _ _ _ _ _ _ _ _ Q ^ ; & f f.9.f.f.f.f.f.f.f.f.9.f.f & - ^ Q _ _ _ _ _ _ _ _ _ K S T _ ( ) _ U S M O.  ",
"o *.u M A P _ _ ! _ _ R S P _ _ _ _ _ _ _ _ D & h c u.9.q.u.f.f.f.f.u.q.9.u.c h & D _ _ _ _ _ _ _ _ P S R _ _ ! _ _ P A M +.}   ",
"o *. .X.M A P _ P Y _ _ _ S S S S S I ) _ R S M f f.f.i.O p d.f.f.d.p O i.f.f.f M S R _ ) I S S S S S _ _ _ Y P _ P A M y $.5   ",
"o *.[ *.[ q A P ^ P P ! _ _ _ E S S S E R S S S f 9.f.f @ O r.r.r.r.O @ f f.9.f S S S R E S S S E _ _ _ ! P P ^ P A | =.$.e 2   ",
"o *.*.[ [ [ r q A S ~ ! U ! _ _ _ Q S S A S S & k f.f.f.@ f y.r.r.y.f @ f.f.f.k & S S S S S Q _ _ _ ! U ! ~ S A 6   } } ' 5 e   ",
"o *.[ *.w w r w ] S S ) _ _ Y ! _ _ _ V P P b m z f.f.f.f.f.f.f.f.f.f.f.f.f.f.z m b P P V _ _ _ ! Y _ _ ) S S 3 2   ' e 5 2 2   ",
"o                   . A S R ) L P ! _ _ S A b a t.f.f.f.u.t.l # # l t.u.f.f.f.t.a b A S _ _ ! P L ) R S A 6 2 5 2               ",
"=.1.1.=.1.=.=.=.=.=.1.=.=.F S S S S S Q S S & s 9.f.f.f.f.t.s.# # s.t.f.f.f.f.9.s & S S Q S S S S S F $.' ' 5 2 2   e 2.2.2.2.2.",
"1.1.=.$.=.1.1.=.} =.=.' =.$.' Z S S A _ _ B S & f g 0.9.d.f.r.a.a.r.f.d.9.0.g f & S B _ _ A S S G $.$.2.$.' e 5 2   } 2.2.4.1.2.",
"1.1.$.$.} =.=.} ' $.$.' ' $.$.  O 6 S S Z & & & & S x 9.9.e.0.@ @ 0.e.9.9.x S & & & & Z S S  .&.1.1.$.$.' ' e 2 5   =.2.4.5.4.1.",
"1.=.$.1.1.$.$.' ' ' $.' ' ' '   o $.$.$.1.=.1.1.& & d l v 9.@ p.p.@ 9.v l d & & [ w 4 [   } 1.1.1.1.$.} ' 5 2 5 5   =.2.2.4.1.2.",
"=.} $.1.1.1.' ' $.$.' $.2 ' '   1 1.$.1.} 1.=.& E E b ; d z ` p.p.` z j : b E E & 4 r w   } 1.1.1.e e } ' e 5 5 2   1.2.2.1.=.1.",
"=.=.} $.1.1.' $.' ' 5 5 e ' '   1 =.=.1.1.=.;.E D B b b * f g p.p.g f = b b B D E t 4 4   ' =.=.=.e e e ' e 2 2 2   1.2.2.1.2.=.",
"1.} ' } $.=.$.' ' $.5 e ' 2 2   2 =.1.1.=.2.R E C b b V n 2 e f f   o n V b b C E R w w   ' $.=.=.} e e e 5 2 2 2   1.2.1.1.1.=.",
"1.=.} $.' $.' $.$.' e ' 5 ' 2   e $.=.=.} J E E b b N V N e 2 2 e   o N V N b b E E D     ' $.$.1.' ' e e e 2 5 2   1.2.1.=.$.1.",
"1.1.$.} ,.$.$.$.$.' ' e 2 2 2   e $.=.} R E E R b N V N 8 ' e ' e   1.o.N V N b R E E R o $.$.=.$.$.' e e 2 0 2 2   =.2.2.1.2.2.",
"1.=.} ' } 1.1.5 ' $.} } e 2 5   e $.} ' E E S b b V V M 1.} e 5 e   1.2.M V V b b S E E o $.1.1.=.$.' ' e 5 5 5 2   =.2.1.2.1.1.",
"=.$.' } =.1.1.=.$.' } } e 2 5   2 } } ' ..E E E S V V C } ' ' e '   1.*.C V V S E E E X o =.1.1.1.=.$.} e 5 2 5 5   =.2.2.2.1.=.",
"1.$.1.$.$.=.1.=.5 ' e e e 2 2   1 ' ' } 1.7.E E E E V M } e } 5 '   1.1.M V E E E E r   o =.1.=.1.=.$.' e 5 5 e 2   } 2.2.2.1.1.",
"=.} } =.=.$.=.=.5 e 2 5 2 2 2   1 ' ' } $.1.=.R E E V & $.' 2 ' 2   1.1.& V E E R  .r   o =.=.$.=.} $.} ' 2 2 2 5   } 2.1.2.2.=.",
"=.$.} =.=.=.$.' e 5 2 5 1 1 2     ' } $.=.} =.} *.E E / e 2 5 e 2   ,.3./ E E r w w w   o =.$.=.} ' ' ' ' 2 2 2 2   } 2.2.1.1.1.",
"$.} $.} =.=.' 5 5 2 2 2 1 1 5     5 ' ' $.' $.=.$.=.1.e 2 5 ' 2 2   1.*.1.1. .r r r w   o =.$.1.=.$.} e e 2 e 2 2   } 2.2.1.$.=.",
"$.} } ' } } ' 5 5 e ' ' 5 2 5   o 2 5 ' ' ' ' $.=.e ' $.e ' 2 2 2   1.*.*.1.[ w w r 4   o =.=.1.1.=.} e 5 ' ' 2 2   } 2.1.2.1.$.",
"$.} =.$.e ' ' e 5 e ' ' 5 2 2   o o 1 2 2 2 2 2 2 2 2 2 2 2 2 2 1   1.*.1.w r [ r w 4   o =.=.1.1.=.=.$.' 5 ' 5 2   } 2.1.2.} } ",
"$.=.$.} } ' 5 5 2 5 e e 5 2 2   o o o                               1.1. .[ w w w 4 4   o =.1.1.=.$.$.$.$.} 5 2 2   } 2.2.} $.} ",
"' $.$.} ' ' ' ' 2 5 1 2 2 5 2   o o r r r r r r [ [ [ r r r r w o o 1. . .r 4 4 w 4 4   o =.1.1.=.$.' $.$.} ' e 2   e 2.1.2.$.$.",
"' } } ' e ' ' ' 2 1 1 1 2 2 2   o o r [ $.1.1.$.1.=.=.$. .r r w   o 1.1. .[ w 4 w 4 4   o =.$.1.$.1.' e } ' e 5 2   e 2.1.$.$.} ",
"' } 5 e ' 5 ' ' 2 1 1 1 1 5 2   o o r $.1.1.=.1.$.[ *.[ [ *.[ w   o 1.1.[ *.r w 4 4 4   o =.=.=.1.$.$.e e 5 5 5 2   e 1.1.$.} } ",
"' $.' 5 ' 5 e 2 5 1 2 1 1 2 2   o o r 1.=.[ 1.1.[ =.[ 0 [ ,.[ [   o 1.1.*.1.[ r w 4 4   o =.2.=.$.$.e 2 2 e 2 2 2   e 1.$.} $.} ",
"' } $.} e ' e 2 2 2 1 1 1 2 2   o o r ,.$.,.$.$.1.[ *.r w [ [ w   o 1.*.1.*. .[ r w w   o =.2.$.=.$.e 5 2 2 e 2 2   e 1.$.$.$.} ",
"' $.} ' 5 e ' e 2 2 5 2 2 5 5   o o r *.,.,.$.[ r w r 0 w r w w   o 1.1. .[ [ r w w 4   o $.1.$.$.' ' e 5 5 2 2 2   e $.$.$.' $.",
"                                o o [ 1.=.$.r w w r w w [ [ [ w   o *.*.[ [ w r 4 w 4   o $.=.$.' 2 ' 2 2 5 2 2 2   o           ",
"o o o o o o 2 2 e e } } } ' e 0 2 e o                             o *.1.[ w r r 4 4 w   o } ' 2 5 4 e e 5 2 2 2 2   o o o o o o ",
"o o $.=.1.2.1.1.1.1.1.1.1.1.2.1.1.1.1.1.=.=.$.$.' o o o o o o o o o *.*.[ r w 4 4 4 4   o } ' 5 5 2 2 2 2 5 2 e 2   o o o o o o ",
"o o =.2.2.2.1.1.1.=.1.1.=.=.=.2.=.=.1.1.' } } } 5   o 2 2 5 5 e o o *.[  .r 4 4 4 4 4   o o                         o o o o o o ",
"o o =.1.1.1.=.,.,.1.1.1.$.=.1.1.1.1.=.} 1.5 ' 2 5   o 2 $.} 1.'   o  .[  .w r w 4 w w   o o o o o o o o o o o o o o o o o o o o ",
"o o 1.1.1.1.1.1.1.$.$.=.1.1.$.1.} =.$.$.' } 5 2 5   o 2 =.1.$.2   o [ [ w r w 4 4 4 4   o o 1.1.1.1.1.1.1.1.1.1.1.1.1.1.1.1.=.o ",
"o o 1.=.1.=.1.1.,.$.$.$.2.=.} } =.' $.$.$.' e 2 2   o 5 1.1.=.}   o o                   o o 1.1.1.2.1.1.=.=.1.1.1.=.=.1.1.=.}   ",
"o o 1.1.1.$.} 1.1.=.$.$.=.2.2.=.=.=.' $.$.' 2 2 5   o 5 =.} e 2   o } $.=.1.=.=.=.$.} } o o 1.1.1.2.1.=.2.2.=.1.=.$.1.1.$.$.}   ",
"o o 1.1.$.=.1.1.} =.1.1.1.' =.=.5.=.$.5 e 5 2 5 2   o e $.e 2 2   o $.=.1.=.$.1.$.1.e e   o 1.1.1.1.=.1.1.2.' ' $.} ' $.e } '   ",
"o o 1.1.1.1.=.} 1.} 1.' ' =.} =.=.$.' $.$.' 5 5 5   o e } 5 2 5   o =.1.1.=.} ' } e 2 5   o 1.1.1.1.=.1.1.=.' ' ' $.=.' ' ' e   ",
"o o 2.=.2.$.=.=.1.1.$.' ' ' =.=.e ' $.' ' 5 2 ' 2   o o           o $.=.} } ' e 2 5 2 2   o 1.1.1.4.4.=.$.=.$.' ' =.} } $.5 2   ",
"o o 1.1.$.$.2.4.1.=.} =.' ' =.=.} } ' $.e e 5 2 2   o o o o o o o o                       o 1.1.=.4.4.2.1.1.=.$.1.' e $.$.5 2   ",
"o o 1.=.2.=.4.7.4.$.$.=.$.} ' } } } } ' 1 1 2 5 2   o $.$.$.=.=.=.=.=.=.=.$.$.$.} } e w o o 1.1.=.$.2.2.=.$.' $.' } $.$.' 5 2   ",
"o o 2.1.2.1.1.4.1.=.' =.=.5 5 5 ' } } e 1 1 1 2 2   o $.=.$.} =.} $.=.=.} $.=.' ' e e 2   o 1.=.=.1.$.} $.} =.} ' } =.} e 5 2   ",
"o o 1.=.1.,.1.,.} } } ' e 5 5 5 5 e e e 2 1 1 2 2   o $.$.} } } =.=.=.1.$.} } } 0 e 4 4   o 1.1.=.$.$.} } ' } $.$.$.} e 5 2 2   ",
"o o =.1.,.,.=.r ' $.=.$.$.' 5 5 5 5 e 5 2 ' 2 2 2   o =.} =.=.1.$.=.$.=.=.=.$.} ' e 2 0   o 1.1.=.$.' ' ' e ' } $.' 5 2 5 e 2   ",
"o o 1.=.1.1.} } 1.' =.=.$.e ' 2 e ' ' 2 5 2 2 2 5   o =.=.} =.$.} ' } $.=.=.$.} ' 2 5 5   o 1.1.1.1.=.} e 2 2 ' e 2 2 1 1 5 2   ",
"o o 1.=.1.=.$.} ' 5 } =.=.$.e 5 2 ' ' ' 2 5 2 5 2   o $.} =.$.} =.' } $.$.$.} ' e 5 2 2   o 1.1.=.=.' ' $.2 2 5 e 2 2 1 1 1 2   ",
"o o 1.=.} } } =.5 } 5 } $.$.e e 5 ' ' ' 2 2 e 2 2   o $.=.} ' ' ' } e ' ' } ' e 5 2 2 2   o 1.$.=.$.1.$.' ' 5 e 2 e 2 2 1 1 2   ",
"o o 1.=.e 5 } 5 =.' ' $.2 5 2 2 5 2 ' ' 2 2 5 5 2   o } $.=.' e ' 5 ' e ' e e e 2 5 5 2   o 1.1.=.' $.e e ' 2 5 2 2 2 5 5 5 2   ",
"o o =.=.} } 5 } 2 5 2 5 e 5 e 5 e 2 2 2 2 2 2 2 2   o } $.} ' e 5 e e 5 2 e 2 2 5 5 2 2   o =.' $.' } $.' e 5 2 5 2 5 2 2 2 2   ",
"o o =.$.' } $.e e e e e e 5 5 5 5 5 5 5 5 5 5 5 5   o } ' e e e e e e 5 5 5 5 5 5 e 5 e o o =.$.' } ' e e 5 5 5 5 5 5 5 5 5 5 o ",
"$ $ ' ' ' ' ' ' ' ' ' ' ' ' ' ' ' ' ' ' ' ' ' ' ' $ $ ' ' ' ' ' ' ' ' ' ' ' ' ' ' ' ' ' $ $ ' ' ' ' ' ' ' ' ' ' ' ' ' ' ' ' ' + ",
"d d d d d d d d d d d d d d d d d d d d d d d d d d d d d d d d d d d d d d d d d d d d d d d d d d d d d d d d d d d d d d d d "
};
