/* XPM */
static char *_459ef8a11c04ccfa0ed19b7fe64f7e5q39TycECtdklwATO[] = {
/* columns rows colors chars-per-pixel */
"64 64 42 1 ",
"  c None",
". c black",
"X c #202020",
"o c #2C2C2C",
"O c gray22",
"+ c #404000",
"@ c #585400",
"# c #706C00",
"$ c #004040",
"% c #005858",
"& c #007070",
"* c #007474",
"= c #007878",
"- c #007C7C",
"; c #484848",
": c gray33",
"> c #646464",
", c gray44",
"< c #7C7C7C",
"1 c #848400",
"2 c #9C9C00",
"3 c #B4AC00",
"4 c #CCC400",
"5 c #E4D800",
"6 c #FCF400",
"7 c #008484",
"8 c #008C8C",
"9 c #009898",
"0 c #00A4A4",
"q c #20B0B0",
"w c #20B4B4",
"e c #48C0C0",
"r c #74C8C8",
"t c gray55",
"y c #989898",
"u c gray66",
"i c #B4B4B4",
"p c #9CDCDC",
"a c #B8E8E8",
"s c #C0C0C0",
"d c #D0D0D0",
"f c #D8F4F4",
/* pixels */
"                OOOOOOOOOOOOOOOOOOOOOOOOOOOOOOOOOOOOOOOOOOOOOOOO",
"                -===============================================",
"                q998*&q88888*&q98888*&q88888*&q88888*&q88888*&q8",
"                qqqq-$&qqqqq-$&qqqqq-$&qqqqq-$&wweeq-$&eeeqq-$&q",
"                qqqq=-8qqqqq=-8qqqqq=-8qqqqq=-8werpq=-8eeqqq=-8q",
"                qqqq7%%%%%%%%%%%%%%%%%%%%%%%%%%%%%%%%%%%%%%%%%%%",
"                qqqqq-=&&&&&&&&&&&&&&&&&&&&&&&&&&&&&&&&&&&&&&&&&",
"                97aqpq888888888888888888888888888888888888888888",
"                -&7qae00000000000000000qqqqwwwwwewewewewwwwqqq00",
"                =-8qar000000000000000qqqqqwwwwwewewewewwwwqqq000",
"                00qqar0000000000000qqqqqwwwwewewewewewwwwqqq0000",
"                qqqqar00000000000qqqqqwwwwwewewewewewwwwqqq0q000",
"                qqqqar00000000qqqqqqwwwwewewewewewewwwwqqq0q0009",
"                qqqqar000000qqqqqqwwwwwewewewewewewwwwqqq0q00090",
"                qqqqar0000qqqqqqwwwwwwewewewewewewwwwqqq0q000909",
"                97aqar00qqqqqqqwwwwwwewewewewewewwwwqqq0q0009099",
"                -&7qarqqqqqqqwwwwwewewewewewewewwwwqqqqq00000999",
"                =-8qarqqqqqwwwwwwewewewewewewewwwwqwqqq000009999",
"                00qqarqqqwwwwwwwewewewewewewewwwwqwqqq0000090998",
"                qqqqarqwwwwwwwwewewewewewewewwwwqwqqq00000909989",
"                qqqqarwwwwwwwwewewewewewewewewwqwqqq000009099898",
"                qqqqarwwwwwewewewewewewewewewwqwqqq0q00090999988",
"                qqqqarwwwwewewewewewewewewewwqwqqq0q000009999888",
"                97aqarwwwewewewewewewewewewwqwqqq0q0000099998988",
"                -&7qarwwewewewewewewewewewwqwqqq0q00000999989887",
"                =-8qarwewewewewewewewewewwqwqqq0q000009999898878",
"                00qqarewewewewewewewewewwqwqqqqq0000090998988787",
"                qqqqarweweweweudddddddssqwqqqqq00000909989887878",
"                qqwwareweweweq<>,,<<tyuswqqqqq000009099998888787",
"                qwwwarwe356eq-o>Ou,<:dyiqqqqq0000090999989887878",
"                wwwware=@16w0-o>>>,,<<tiqqqq0q000909999898878787",
"                97awar7*+15r8-o>>>>,,<<iqqq0q0000099998988787878",
"                -&7waq78+15e8-o>>>>>,,<uqq0q00000999989887878787",
"                =-8ea97p+15e8-o:;1446,,uq0q000009999898888787878",
"                00err97r+14e8-o;o#..4>,u0q0000090998988887878788",
"                errpw97r+14e8-oOo#..4>>uq00000909989898878787878",
"                rrppq97r+14e8-ooo@oo4>>u000009099998988787878788",
"                rppaq97e+13e8-ooo@@#1>>u000090999989887878787888",
"                paaaq97e+13e8-ooooooo>>y000909999898878787878888",
"                rwafq97e+12e8-oooooo;>>y009099998988887878787888",
"                q-waq978*+#w8-oOO;;:>>>y000999989888878787878888",
"                qqraw97==7ww8-oOX,:>ot>t009099898888787878788889",
"                rrapw9777www8-ooO:::>>>t090998989887878787888888",
"                fappw978wwwq8-ooooooooo>909999898878787878788889",
"                apprw99wwwwq8----------9099998988887878787888898",
"                pprrw9wwwwqq888888888800999989888878787878888989",
"                preeeqwwwqqqqqqq0q000009999898888787878788888898",
"                97aeawwwqqqqqqq0q0000099998988887878787878888989",
"                -&7eaewqqqqqqq0q00000999989888878787878788889899",
"                =-8earqqqqqqq0q0q0009099898988787878787888888989",
"                00eearqqqqqq0q0q00090998989888878787878888889899",
"                eeewarqqqqq0q0q000909999898888787878787888898999",
"                eewwarqqqq0q0q0009099998988887878787878888889899",
"                wwwwarqqq0q0q0q090999989888878787878788888898999",
"                wwwwarqq0q0q0q0009999898888787878787888888989999",
"                97awarqqq0q0q00099998988887888787878788889898999",
"                -&7warqq0q0q000999989888888887878787888888989999",
"                =-8qarrrrrrrrrrrrrrrrrreeewwq0000qweeeeeeeeeeeew",
"                00qqaaaaaaaaaaaaaaaaaaapppprreeerrpppppppppppppp",
"                qqqqqqqqqqqqq000099999999877-----78899999900qqqq",
"                qqqq97aqqqqq97a099999&w9877-=&9--7899&w9990q97aq",
"                qqqq-&7qqqqq-&799999-$&877--&$%-7789-$&9900q-&7q",
"                qqqq=-8qqqqq=-899999=-8877--&&=77899=-8990qq=-8q",
"                ::::::::::::::::::::::::::::::::::::::::::::::::"
};
