/* XPM */
static char *a8555681fa454b8d98282dd836cf6e80CJdT8GSat849srgT[] = {
/* columns rows colors chars-per-pixel */
"64 64 42 1 ",
"  c None",
". c black",
"X c #202020",
"o c #2C2C2C",
"O c gray22",
"+ c #404000",
"@ c #585400",
"# c #706C00",
"$ c #004040",
"% c #005858",
"& c #007070",
"* c #007474",
"= c #007878",
"- c #007C7C",
"; c #484848",
": c gray33",
"> c #646464",
", c gray44",
"< c #7C7C7C",
"1 c #848400",
"2 c #9C9C00",
"3 c #B4AC00",
"4 c #CCC400",
"5 c #E4D800",
"6 c #FCF400",
"7 c #008484",
"8 c #008C8C",
"9 c #009898",
"0 c #00A4A4",
"q c #20B0B0",
"w c #20B4B4",
"e c #48C0C0",
"r c #74C8C8",
"t c gray55",
"y c #989898",
"u c gray66",
"i c #B4B4B4",
"p c #9CDCDC",
"a c #B8E8E8",
"s c #C0C0C0",
"d c #D0D0D0",
"f c #D8F4F4",
/* pixels */
"                           OOOOOOOOOOOOOOOOOOOOOOOOOOOOOOOOOOOOO",
"                           -====================================",
"                           q998*&q88888*&q98888*&q88888*&q88888*",
"                           qqqq-$&qqqqq-$&qqqqq-$&qqqqq-$&wweeq-",
"                           qqqq=-8qqqqq=-8qqqqq=-8qqqqq=-8werpq=",
"                           qqqq7%%%%%%%%%%%%%%%%%%%%%%%%%%%%%%%%",
"                           qqqqq-=&&&&&&&&&&&&&&&&&&&&&&&&&&&&&&",
"                           97aqpq8888888888888888888888888888888",
"                           -&7qae00000000000000000qqqqwwwwwewewe",
"                           =-8qar000000000000000qqqqqwwwwwewewew",
"                           00qqar0000000000000qqqqqwwwwewewewewe",
"                           qqqqar00000000000qqqqqwwwwwewewewewew",
"                           qqqqar00000000qqqqqqwwwweweweweweweww",
"                           qqqqar000000qqqqqqwwwwwewewewewewewww",
"                           qqqqar0000qqqqqqwwwwwwewewewewewewwww",
"                           97aqar00qqqqqqqwwwwwwewewewewewewwwwq",
"                           -&7qarqqqqqqqwwwwwewewewewewewewwwwqq",
"                           =-8qarqqqqqwwwwwwewewewewewewewwwwqwq",
"                           00qqarqqqwwwwwwwewewewewewewewwwwqwqq",
"                           qqqqarqwwwwwwwwewewewewewewewwwwqwqqq",
"                           qqqqarwwwwwwwwewewewewewewewewwqwqqq0",
"                           qqqqarwwwwwewewewewewewewewewwqwqqq0q",
"                           qqqqarwwwwewewewewewewewewewwqwqqq0q0",
"                           97aqarwwwewewewewewewewewewwqwqqq0q00",
"                           -&7qarwwewewewewewewewewewwqwqqq0q000",
"                           =-8qarwewewewewewewewewewwqwqqq0q0000",
"                           00qqarewewewewewewewewewwqwqqqqq00000",
"                           qqqqarweweweweudddddddssqwqqqqq000009",
"                           qqwwareweweweq<>,,<<tyuswqqqqq0000090",
"                           qwwwarwe356eq-o>Ou,<:dyiqqqqq00000909",
"                           wwwware=@16w0-o>>>,,<<tiqqqq0q0009099",
"                           97awar7*+15r8-o>>>>,,<<iqqq0q00000999",
"                           -&7waq78+15e8-o>>>>>,,<uqq0q000009999",
"                           =-8ea97p+15e8-o:;1446,,uq0q0000099998",
"                           00err97r+14e8-o;o#..4>,u0q00000909989",
"                           errpw97r+14e8-oOo#..4>>uq000009099898",
"                           rrppq97r+14e8-ooo@oo4>>u0000090999989",
"                           rppaq97e+13e8-ooo@@#1>>u0000909999898",
"                           paaaq97e+13e8-ooooooo>>y0009099998988",
"                           rwafq97e+12e8-oooooo;>>y0090999989888",
"                           q-waq978*+#w8-oOO;;:>>>y0009999898888",
"                           qqraw97==7ww8-oOX,:>ot>t0090998988887",
"                           rrapw9777www8-ooO:::>>>t0909989898878",
"                           fappw978wwwq8-ooooooooo>9099998988787",
"                           apprw99wwwwq8----------90999989888878",
"                           pprrw9wwwwqq8888888888009999898888787",
"                           preeeqwwwqqqqqqq0q0000099998988887878",
"                           97aeawwwqqqqqqq0q00000999989888878787",
"                           -&7eaewqqqqqqq0q000009999898888787878",
"                           =-8earqqqqqqq0q0q00090998989887878787",
"                           00eearqqqqqq0q0q000909989898888787878",
"                           eeewarqqqqq0q0q0009099998988887878787",
"                           eewwarqqqq0q0q00090999989888878787878",
"                           wwwwarqqq0q0q0q0909999898888787878787",
"                           wwwwarqq0q0q0q00099998988887878787878",
"                           97awarqqq0q0q000999989888878887878787",
"                           -&7warqq0q0q0009999898888888878787878",
"                           =-8qarrrrrrrrrrrrrrrrrreeewwq0000qwee",
"                           00qqaaaaaaaaaaaaaaaaaaapppprreeerrppp",
"                           qqqqqqqqqqqqq000099999999877-----7889",
"                           qqqq97aqqqqq97a099999&w9877-=&9--7899",
"                           qqqq-&7qqqqq-&799999-$&877--&$%-7789-",
"                           qqqq=-8qqqqq=-899999=-8877--&&=77899=",
"                           :::::::::::::::::::::::::::::::::::::"
};
